$MeshFormat
4.1 0 8
$EndMeshFormat
$PhysicalNames
3
2 2 "Dirichlet"
2 3 "FreeSurface"
3 1 "Volume"
$EndPhysicalNames
$Entities
8 12 6 1
1 0 0 24 0 
2 0 0 0 0 
3 0 10 24 0 
4 0 10 0 0 
5 1000 0 24 0 
6 1000 0 0 0 
7 1000 10 24 0 
8 1000 10 0 0 
1 -1e-07 -1e-07 -9.99999993922529e-08 1e-07 1e-07 24.0000001 0 2 2 -1 
2 -1e-07 -1.000000002804313e-07 23.9999999 1e-07 10.0000001 24.0000001 0 2 1 -3 
3 -1e-07 9.999999900000001 -9.99999993922529e-08 1e-07 10.0000001 24.0000001 0 2 4 -3 
4 -1e-07 -1.000000002804313e-07 -1e-07 1e-07 10.0000001 1e-07 0 2 2 -4 
5 999.9999999 -1e-07 -9.99999993922529e-08 1000.0000001 1e-07 24.0000001 0 2 6 -5 
6 999.9999999 -1.000000002804313e-07 23.9999999 1000.0000001 10.0000001 24.0000001 0 2 5 -7 
7 999.9999999 9.999999900000001 -9.99999993922529e-08 1000.0000001 10.0000001 24.0000001 0 2 8 -7 
8 999.9999999 -1.000000002804313e-07 -1e-07 1000.0000001 10.0000001 1e-07 0 2 6 -8 
9 -1.000000224848918e-07 -1e-07 -1e-07 1000.0000001 1e-07 1e-07 0 2 2 -6 
10 -1.000000224848918e-07 -1e-07 23.9999999 1000.0000001 1e-07 24.0000001 0 2 1 -5 
11 -1.000000224848918e-07 9.999999900000001 -1e-07 1000.0000001 10.0000001 1e-07 0 2 4 -8 
12 -1.000000224848918e-07 9.999999900000001 23.9999999 1000.0000001 10.0000001 24.0000001 0 2 3 -7 
1 -1e-07 -1.000000002804313e-07 -9.99999993922529e-08 1e-07 10.0000001 24.0000001 1 2 4 -1 4 3 -2 
2 999.9999999 -1.000000002804313e-07 -9.99999993922529e-08 1000.0000001 10.0000001 24.0000001 1 2 4 -5 8 7 -6 
3 -1.000000224848918e-07 -1e-07 -9.99999993922529e-08 1000.0000001 1e-07 24.0000001 1 3 4 -9 1 10 -5 
4 -1.000000224848918e-07 9.999999900000001 -9.99999993922529e-08 1000.0000001 10.0000001 24.0000001 1 3 4 -11 3 12 -7 
5 -1.000000224848918e-07 -1.000000002804313e-07 -1e-07 1000.0000001 10.0000001 1e-07 1 3 4 -4 9 8 -11 
6 -1.000000224848918e-07 -1.000000002804313e-07 23.9999999 1000.0000001 10.0000001 24.0000001 1 3 4 -2 10 6 -12 
1 -1.000000224848918e-07 -1.000000002804313e-07 -9.99999993922529e-08 1000.0000001 10.0000001 24.0000001 1 1 6 -1 2 -3 4 -5 6 
$EndEntities
$Nodes
27 1025 1 1025
0 1 0 1
1
0 0 24
0 2 0 1
2
0 0 0
0 3 0 1
3
0 10 24
0 4 0 1
4
0 10 0
0 5 0 1
5
1000 0 24
0 6 0 1
6
1000 0 0
0 7 0 1
7
1000 10 24
0 8 0 1
8
1000 10 0
1 1 0 3
9
10
11
0 0 12
0 0 6
0 0 18
1 2 0 3
12
13
14
0 5 24
0 2.5 24
0 7.5 24
1 3 0 3
15
16
17
0 10 12
0 10 6
0 10 18
1 4 0 3
18
19
20
0 5 0
0 2.5 0
0 7.5 0
1 5 0 3
21
22
23
1000 0 12
1000 0 6
1000 0 18
1 6 0 3
24
25
26
1000 5 24
1000 2.5 24
1000 7.5 24
1 7 0 3
27
28
29
1000 10 12
1000 10 6
1000 10 18
1 8 0 3
30
31
32
1000 5 0
1000 2.5 0
1000 7.5 0
1 9 0 39
33
34
35
36
37
38
39
40
41
42
43
44
45
46
47
48
49
50
51
52
53
54
55
56
57
58
59
60
61
62
63
64
65
66
67
68
69
70
71
50 0 0
100 0 0
150 0 0
200 0 0
250 0 0
300.0000000000001 0 0
350.0000000000001 0 0
400 0 0
450 0 0
500 0 0
550 0 0
600.0000000000001 0 0
650 0 0
700.0000000000001 0 0
750 0 0
800 0 0
850.0000000000001 0 0
900 0 0
950.0000000000001 0 0
25 0 0
75 0 0
125 0 0
175 0 0
225 0 0
275 0 0
325.0000000000001 0 0
375 0 0
425 0 0
475 0 0
525 0 0
575 0 0
625 0 0
675 0 0
725 0 0
775 0 0
825 0 0
875 0 0
925 0 0
975 0 0
1 10 0 39
72
73
74
75
76
77
78
79
80
81
82
83
84
85
86
87
88
89
90
91
92
93
94
95
96
97
98
99
100
101
102
103
104
105
106
107
108
109
110
50 0 24
100 0 24
150 0 24
200 0 24
250 0 24
300.0000000000001 0 24
350.0000000000001 0 24
400 0 24
450 0 24
500 0 24
550 0 24
600.0000000000001 0 24
650 0 24
700.0000000000001 0 24
750 0 24
800 0 24
850.0000000000001 0 24
900 0 24
950.0000000000001 0 24
25 0 24
75 0 24
125 0 24
175 0 24
225 0 24
275 0 24
325.0000000000001 0 24
375 0 24
425 0 24
475 0 24
525 0 24
575 0 24
625 0 24
675 0 24
725 0 24
775 0 24
825 0 24
875 0 24
925 0 24
975 0 24
1 11 0 39
111
112
113
114
115
116
117
118
119
120
121
122
123
124
125
126
127
128
129
130
131
132
133
134
135
136
137
138
139
140
141
142
143
144
145
146
147
148
149
50 10 0
100 10 0
150 10 0
200 10 0
250 10 0
300.0000000000001 10 0
350.0000000000001 10 0
400 10 0
450 10 0
500 10 0
550 10 0
600.0000000000001 10 0
650 10 0
700.0000000000001 10 0
750 10 0
800 10 0
850.0000000000001 10 0
900 10 0
950.0000000000001 10 0
25 10 0
75 10 0
125 10 0
175 10 0
225 10 0
275 10 0
325.0000000000001 10 0
375 10 0
425 10 0
475 10 0
525 10 0
575 10 0
625 10 0
675 10 0
725 10 0
775 10 0
825 10 0
875 10 0
925 10 0
975 10 0
1 12 0 39
150
151
152
153
154
155
156
157
158
159
160
161
162
163
164
165
166
167
168
169
170
171
172
173
174
175
176
177
178
179
180
181
182
183
184
185
186
187
188
50 10 24
100 10 24
150 10 24
200 10 24
250 10 24
300.0000000000001 10 24
350.0000000000001 10 24
400 10 24
450 10 24
500 10 24
550 10 24
600.0000000000001 10 24
650 10 24
700.0000000000001 10 24
750 10 24
800 10 24
850.0000000000001 10 24
900 10 24
950.0000000000001 10 24
25 10 24
75 10 24
125 10 24
175 10 24
225 10 24
275 10 24
325.0000000000001 10 24
375 10 24
425 10 24
475 10 24
525 10 24
575 10 24
625 10 24
675 10 24
725 10 24
775 10 24
825 10 24
875 10 24
925 10 24
975 10 24
2 1 0 9
189
190
191
192
193
194
195
196
197
0 5 12
0 2.5 12
0 5 6
0 2.5 6
0 7.5 12
0 7.5 6
0 5 18
0 2.5 18
0 7.5 18
2 2 0 9
198
199
200
201
202
203
204
205
206
1000 5 12
1000 5 6
1000 2.5 12
1000 2.5 6
1000 7.5 12
1000 7.5 6
1000 5 18
1000 2.5 18
1000 7.5 18
2 3 0 117
207
208
209
210
211
212
213
214
215
216
217
218
219
220
221
222
223
224
225
226
227
228
229
230
231
232
233
234
235
236
237
238
239
240
241
242
243
244
245
246
247
248
249
250
251
252
253
254
255
256
257
258
259
260
261
262
263
264
265
266
267
268
269
270
271
272
273
274
275
276
277
278
279
280
281
282
283
284
285
286
287
288
289
290
291
292
293
294
295
296
297
298
299
300
301
302
303
304
305
306
307
308
309
310
311
312
313
314
315
316
317
318
319
320
321
322
323
50 0 12
100 0 12
150 0 12
200 0 12
250 0 12
300.0000000000001 0 12
350.0000000000001 0 12
400 0 12
450 0 12
500 0 12
550 0 12
600.0000000000001 0 12
650 0 12
700.0000000000001 0 12
750 0 12
800 0 12
850.0000000000001 0 12
900 0 12
950.0000000000001 0 12
50 0 6
25 0 12
25 0 6
50 0 18
25 0 18
100 0 6
75 0 12
75 0 6
100 0 18
75 0 18
150 0 6
125 0 12
125 0 6
150 0 18
125 0 18
200 0 6
175 0 12
175 0 6
200 0 18
175 0 18
250 0 6
225 0 12
225 0 6
250 0 18
225 0 18
300.0000000000001 0 6
275 0 12
275 0 6
300.0000000000001 0 18
275 0 18
350.0000000000001 0 6
325.0000000000001 0 12
325.0000000000001 0 6
350.0000000000001 0 18
325.0000000000001 0 18
400 0 6
375 0 12
375 0 6
400 0 18
375 0 18
450 0 6
425 0 12
425 0 6
450 0 18
425 0 18
500 0 6
475 0 12
475 0 6
500 0 18
475 0 18
550 0 6
525 0 12
525 0 6
550 0 18
525 0 18
600.0000000000001 0 6
575 0 12
575 0 6
600.0000000000001 0 18
575 0 18
650 0 6
625 0 12
625 0 6
650 0 18
625 0 18
700.0000000000001 0 6
675 0 12
675 0 6
700.0000000000001 0 18
675 0 18
750 0 6
725 0 12
725 0 6
750 0 18
725 0 18
800 0 6
775 0 12
775 0 6
800 0 18
775 0 18
850.0000000000001 0 6
825 0 12
825 0 6
850.0000000000001 0 18
825 0 18
900 0 6
875 0 12
875 0 6
900 0 18
875 0 18
950.0000000000001 0 6
925 0 12
925 0 6
950.0000000000001 0 18
925 0 18
975 0 12
975 0 6
975 0 18
2 4 0 117
324
325
326
327
328
329
330
331
332
333
334
335
336
337
338
339
340
341
342
343
344
345
346
347
348
349
350
351
352
353
354
355
356
357
358
359
360
361
362
363
364
365
366
367
368
369
370
371
372
373
374
375
376
377
378
379
380
381
382
383
384
385
386
387
388
389
390
391
392
393
394
395
396
397
398
399
400
401
402
403
404
405
406
407
408
409
410
411
412
413
414
415
416
417
418
419
420
421
422
423
424
425
426
427
428
429
430
431
432
433
434
435
436
437
438
439
440
50 10 12
100 10 12
150 10 12
200 10 12
250 10 12
300.0000000000001 10 12
350.0000000000001 10 12
400 10 12
450 10 12
500 10 12
550 10 12
600.0000000000001 10 12
650 10 12
700.0000000000001 10 12
750 10 12
800 10 12
850.0000000000001 10 12
900 10 12
950.0000000000001 10 12
25 10 12
50 10 6
25 10 6
50 10 18
25 10 18
75 10 12
100 10 6
75 10 6
100 10 18
75 10 18
125 10 12
150 10 6
125 10 6
150 10 18
125 10 18
175 10 12
200 10 6
175 10 6
200 10 18
175 10 18
225 10 12
250 10 6
225 10 6
250 10 18
225 10 18
275 10 12
300.0000000000001 10 6
275 10 6
300.0000000000001 10 18
275 10 18
325.0000000000001 10 12
350.0000000000001 10 6
325.0000000000001 10 6
350.0000000000001 10 18
325.0000000000001 10 18
375 10 12
400 10 6
375 10 6
400 10 18
375 10 18
425 10 12
450 10 6
425 10 6
450 10 18
425 10 18
475 10 12
500 10 6
475 10 6
500 10 18
475 10 18
525 10 12
550 10 6
525 10 6
550 10 18
525 10 18
575 10 12
600.0000000000001 10 6
575 10 6
600.0000000000001 10 18
575 10 18
625 10 12
650 10 6
625 10 6
650 10 18
625 10 18
675 10 12
700.0000000000001 10 6
675 10 6
700.0000000000001 10 18
675 10 18
725 10 12
750 10 6
725 10 6
750 10 18
725 10 18
775 10 12
800 10 6
775 10 6
800 10 18
775 10 18
825 10 12
850.0000000000001 10 6
825 10 6
850.0000000000001 10 18
825 10 18
875 10 12
900 10 6
875 10 6
900 10 18
875 10 18
925 10 12
950.0000000000001 10 6
925 10 6
950.0000000000001 10 18
925 10 18
975 10 12
975 10 6
975 10 18
2 5 0 117
441
442
443
444
445
446
447
448
449
450
451
452
453
454
455
456
457
458
459
460
461
462
463
464
465
466
467
468
469
470
471
472
473
474
475
476
477
478
479
480
481
482
483
484
485
486
487
488
489
490
491
492
493
494
495
496
497
498
499
500
501
502
503
504
505
506
507
508
509
510
511
512
513
514
515
516
517
518
519
520
521
522
523
524
525
526
527
528
529
530
531
532
533
534
535
536
537
538
539
540
541
542
543
544
545
546
547
548
549
550
551
552
553
554
555
556
557
50 5 0
100 5 0
150 5 0
200 5 0
250 5 0
300.0000000000001 5 0
350.0000000000001 5 0
400 5 0
450 5 0
500 5 0
550 5 0
600.0000000000001 5 0
650 5 0
700.0000000000001 5 0
750 5 0
800 5 0
850.0000000000001 5 0
900 5 0
950.0000000000001 5 0
25 5 0
50 2.5 0
25 2.5 0
75 5 0
100 2.5 0
75 2.5 0
125 5 0
150 2.5 0
125 2.5 0
175 5 0
200 2.5 0
175 2.5 0
225 5 0
250 2.5 0
225 2.5 0
275 5 0
300.0000000000001 2.5 0
275 2.5 0
325.0000000000001 5 0
350.0000000000001 2.5 0
325.0000000000001 2.5 0
375 5 0
400 2.5 0
375 2.5 0
425 5 0
450 2.5 0
425 2.5 0
475 5 0
500 2.5 0
475 2.5 0
525 5 0
550 2.5 0
525 2.5 0
575 5 0
600.0000000000001 2.5 0
575 2.5 0
625 5 0
650 2.5 0
625 2.5 0
675 5 0
700.0000000000001 2.5 0
675 2.5 0
725 5 0
750 2.5 0
725 2.5 0
775 5 0
800 2.5 0
775 2.5 0
825 5 0
850.0000000000001 2.5 0
825 2.5 0
875 5 0
900 2.5 0
875 2.5 0
925 5 0
950.0000000000001 2.5 0
925 2.5 0
975 5 0
975 2.5 0
50 7.5 0
25 7.5 0
100 7.5 0
75 7.5 0
150 7.5 0
125 7.5 0
200 7.5 0
175 7.5 0
250 7.5 0
225 7.5 0
300.0000000000001 7.5 0
275 7.5 0
350.0000000000001 7.5 0
325.0000000000001 7.5 0
400 7.5 0
375 7.5 0
450 7.5 0
425 7.5 0
500 7.5 0
475 7.5 0
550 7.5 0
525 7.5 0
600.0000000000001 7.5 0
575 7.5 0
650 7.5 0
625 7.5 0
700.0000000000001 7.5 0
675 7.5 0
750 7.5 0
725 7.5 0
800 7.5 0
775 7.5 0
850.0000000000001 7.5 0
825 7.5 0
900 7.5 0
875 7.5 0
950.0000000000001 7.5 0
925 7.5 0
975 7.5 0
2 6 0 117
558
559
560
561
562
563
564
565
566
567
568
569
570
571
572
573
574
575
576
577
578
579
580
581
582
583
584
585
586
587
588
589
590
591
592
593
594
595
596
597
598
599
600
601
602
603
604
605
606
607
608
609
610
611
612
613
614
615
616
617
618
619
620
621
622
623
624
625
626
627
628
629
630
631
632
633
634
635
636
637
638
639
640
641
642
643
644
645
646
647
648
649
650
651
652
653
654
655
656
657
658
659
660
661
662
663
664
665
666
667
668
669
670
671
672
673
674
50 5 24
100 5 24
150 5 24
200 5 24
250 5 24
300.0000000000001 5 24
350.0000000000001 5 24
400 5 24
450 5 24
500 5 24
550 5 24
600.0000000000001 5 24
650 5 24
700.0000000000001 5 24
750 5 24
800 5 24
850.0000000000001 5 24
900 5 24
950.0000000000001 5 24
50 2.5 24
25 5 24
25 2.5 24
100 2.5 24
75 5 24
75 2.5 24
150 2.5 24
125 5 24
125 2.5 24
200 2.5 24
175 5 24
175 2.5 24
250 2.5 24
225 5 24
225 2.5 24
300.0000000000001 2.5 24
275 5 24
275 2.5 24
350.0000000000001 2.5 24
325.0000000000001 5 24
325.0000000000001 2.5 24
400 2.5 24
375 5 24
375 2.5 24
450 2.5 24
425 5 24
425 2.5 24
500 2.5 24
475 5 24
475 2.5 24
550 2.5 24
525 5 24
525 2.5 24
600.0000000000001 2.5 24
575 5 24
575 2.5 24
650 2.5 24
625 5 24
625 2.5 24
700.0000000000001 2.5 24
675 5 24
675 2.5 24
750 2.5 24
725 5 24
725 2.5 24
800 2.5 24
775 5 24
775 2.5 24
850.0000000000001 2.5 24
825 5 24
825 2.5 24
900 2.5 24
875 5 24
875 2.5 24
950.0000000000001 2.5 24
925 5 24
925 2.5 24
975 5 24
975 2.5 24
50 7.5 24
25 7.5 24
100 7.5 24
75 7.5 24
150 7.5 24
125 7.5 24
200 7.5 24
175 7.5 24
250 7.5 24
225 7.5 24
300.0000000000001 7.5 24
275 7.5 24
350.0000000000001 7.5 24
325.0000000000001 7.5 24
400 7.5 24
375 7.5 24
450 7.5 24
425 7.5 24
500 7.5 24
475 7.5 24
550 7.5 24
525 7.5 24
600.0000000000001 7.5 24
575 7.5 24
650 7.5 24
625 7.5 24
700.0000000000001 7.5 24
675 7.5 24
750 7.5 24
725 7.5 24
800 7.5 24
775 7.5 24
850.0000000000001 7.5 24
825 7.5 24
900 7.5 24
875 7.5 24
950.0000000000001 7.5 24
925 7.5 24
975 7.5 24
3 1 0 351
675
676
677
678
679
680
681
682
683
684
685
686
687
688
689
690
691
692
693
694
695
696
697
698
699
700
701
702
703
704
705
706
707
708
709
710
711
712
713
714
715
716
717
718
719
720
721
722
723
724
725
726
727
728
729
730
731
732
733
734
735
736
737
738
739
740
741
742
743
744
745
746
747
748
749
750
751
752
753
754
755
756
757
758
759
760
761
762
763
764
765
766
767
768
769
770
771
772
773
774
775
776
777
778
779
780
781
782
783
784
785
786
787
788
789
790
791
792
793
794
795
796
797
798
799
800
801
802
803
804
805
806
807
808
809
810
811
812
813
814
815
816
817
818
819
820
821
822
823
824
825
826
827
828
829
830
831
832
833
834
835
836
837
838
839
840
841
842
843
844
845
846
847
848
849
850
851
852
853
854
855
856
857
858
859
860
861
862
863
864
865
866
867
868
869
870
871
872
873
874
875
876
877
878
879
880
881
882
883
884
885
886
887
888
889
890
891
892
893
894
895
896
897
898
899
900
901
902
903
904
905
906
907
908
909
910
911
912
913
914
915
916
917
918
919
920
921
922
923
924
925
926
927
928
929
930
931
932
933
934
935
936
937
938
939
940
941
942
943
944
945
946
947
948
949
950
951
952
953
954
955
956
957
958
959
960
961
962
963
964
965
966
967
968
969
970
971
972
973
974
975
976
977
978
979
980
981
982
983
984
985
986
987
988
989
990
991
992
993
994
995
996
997
998
999
1000
1001
1002
1003
1004
1005
1006
1007
1008
1009
1010
1011
1012
1013
1014
1015
1016
1017
1018
1019
1020
1021
1022
1023
1024
1025
50 5 12
100 5 12
150 5 12
200 5 12
250 5 12
299.9999999999999 5 12
350.0000000000002 5 12
400 5 12
450 5 12
500 5 12
550 5 12
599.9999999999999 5 12
650 5 12
700.0000000000003 5 12
750 5 12
800 5 12
850.0000000000003 5 12
900 5 12
950.0000000000003 5 12
25 5 12
50 2.5 12
50 5 6.000000000000001
25 2.5 12
25 5 6
50 2.5 6
25 2.5 6
75 5 12
100 2.5 12
100 5 6
75 2.5 12
75 5 6
100 2.5 6
75 2.5 6
125 5 12
150 2.5 12
150 5 6
125 2.5 12
125 5 6
150 2.5 6
125 2.5 6
175 5 12
200 2.5 12
200 5 5.999999999999999
175 2.5 12
175 5 6
200 2.5 6
175 2.5 6
225 5 12
250 2.5 12
250 5 6
225 2.5 12
225 5 6
250 2.5 6
225 2.5 6
275 5 12
300 2.5 12
300 5 6
275 2.5 12
275 5 6
300.0000000000001 2.5 6
275 2.5 6
325.0000000000001 5 12
350.0000000000001 2.5 12
350.0000000000001 5 6
325.0000000000001 2.5 12
325.0000000000001 5 6
350.0000000000001 2.5 6
325.0000000000001 2.5 6
375.0000000000001 5 12
400 2.5 12
400 5 6
375.0000000000001 2.5 12
375.0000000000001 5 6
400 2.5 6
375 2.5 6
425 5 12
450 2.5 12
450 5 6
425 2.5 12
425 5 6
450 2.5 6
425 2.5 6
475 5 12
500 2.5 12
500 5 6
475 2.5 12
475 5 6
500 2.5 6
475 2.5 6
525 5 12
550 2.5 12
550 5 6
525 2.5 12
525 5 6
550 2.5 6
525 2.5 6
575 5 12
600 2.5 12
600 5 6
575 2.5 12
575 5 6
600.0000000000001 2.5 6
575 2.5 6
625 5 12
650 2.5 12
650 5 6
625 2.5 12
625 5 6
650 2.5 6
625 2.5 6
675.0000000000002 5 12
700.0000000000002 2.5 12
700.0000000000002 5 6
675.0000000000001 2.5 12
675.0000000000001 5 6
700.0000000000002 2.5 6
675.0000000000002 2.5 6
725.0000000000002 5 12
750 2.5 12
750 5 6
725.0000000000001 2.5 12
725.0000000000001 5 6
750 2.5 6
725 2.5 6
775 5 12
800 2.5 12
800 5 6
775 2.5 12
775 5 6
800 2.5 6
775 2.5 6
825.0000000000002 5 12
850.0000000000002 2.5 12
850.0000000000002 5 6
825.0000000000001 2.5 12
825.0000000000001 5 6
850.0000000000002 2.5 6
825.0000000000002 2.5 6
875.0000000000002 5 12
900 2.5 12
900 5 6
875.0000000000001 2.5 12
875.0000000000001 5 6
900 2.5 6
875 2.5 6
925.0000000000002 5 12
950.0000000000002 2.5 12
950.0000000000002 5 6
925.0000000000001 2.5 12
925.0000000000001 5 6
950.0000000000002 2.5 6
925.0000000000002 2.5 6
975.0000000000002 5 12
975.0000000000001 2.5 12
975.0000000000001 5 6
975 2.5 6
50 7.5 12
25 7.5 12
50 7.5 6
25 7.5 6
100 7.5 12
75 7.5 12
100 7.5 6
75 7.5 6
150 7.5 12
125 7.5 12
150 7.5 6
125 7.5 6
200 7.5 12
175 7.5 12
200 7.5 6
175 7.5 6
250 7.5 12
225 7.5 12
250 7.5 6
225 7.5 6
300 7.5 12
275 7.5 12
300.0000000000001 7.5 6
275 7.5 6
350.0000000000001 7.5 12
325.0000000000001 7.5 12
350.0000000000001 7.5 6
325.0000000000001 7.5 6
400 7.5 12
375.0000000000001 7.5 12
400 7.5 6
375 7.5 6
450 7.5 12
425 7.5 12
450 7.5 6
425 7.5 6
500 7.5 12
475 7.5 12
500 7.5 6
475 7.5 6
550 7.5 12
525 7.5 12
550 7.5 6
525 7.5 6
600 7.5 12
575 7.5 12
600.0000000000001 7.5 6
575 7.5 6
650 7.5 12
625 7.5 12
650 7.5 6
625 7.5 6
700.0000000000002 7.5 12
675.0000000000001 7.5 12
700.0000000000002 7.5 6
675.0000000000002 7.5 6
750 7.5 12
725.0000000000001 7.5 12
750 7.5 6
725 7.5 6
800 7.5 12
775 7.5 12
800 7.5 6
775 7.5 6
850.0000000000002 7.5 12
825.0000000000001 7.5 12
850.0000000000002 7.5 6
825.0000000000002 7.5 6
900 7.5 12
875.0000000000001 7.5 12
900 7.5 6
875 7.5 6
950.0000000000002 7.5 12
925.0000000000001 7.5 12
950.0000000000002 7.5 6
925.0000000000002 7.5 6
975.0000000000001 7.5 12
975 7.5 6
50 5 18
25 5 18
50 2.5 18
25 2.5 18
100 5 18
75 5 18
100 2.5 18
75 2.5 18
150 5 18
125 5 18
150 2.5 18
125 2.5 18
200 5 18
175 5 18
200 2.5 18
175 2.5 18
250 5 18
225 5 18
250 2.5 18
225 2.5 18
300 5 18
275 5 18
300 2.5 18
275 2.5 18
350.0000000000001 5 18
325.0000000000001 5 18
350.0000000000001 2.5 18
325.0000000000001 2.5 18
400 5 18
375.0000000000001 5 18
400 2.5 18
375.0000000000001 2.5 18
450 5 18
425 5 18
450 2.5 18
425 2.5 18
500 5 18
475 5 18
500 2.5 18
475 2.5 18
550 5 18
525 5 18
550 2.5 18
525 2.5 18
600 5 18
575 5 18
600 2.5 18
575 2.5 18
650 5 18
625 5 18
650 2.5 18
625 2.5 18
700.0000000000002 5 18
675.0000000000001 5 18
700.0000000000001 2.5 18
675.0000000000002 2.5 18
750 5 18
725.0000000000001 5 18
750 2.5 18
725.0000000000001 2.5 18
800 5 18
775 5 18
800 2.5 18
775 2.5 18
850.0000000000002 5 18
825.0000000000001 5 18
850.0000000000001 2.5 18
825.0000000000002 2.5 18
900 5 18
875.0000000000001 5 18
900 2.5 18
875.0000000000001 2.5 18
950.0000000000002 5 18
925.0000000000001 5 18
950.0000000000001 2.5 18
925.0000000000002 2.5 18
975.0000000000001 5 18
975.0000000000001 2.5 18
50 7.5 18
25 7.5 18
100 7.5 18
75 7.5 18
150 7.5 18
125 7.5 18
200 7.5 18
175 7.5 18
250 7.5 18
225 7.5 18
300.0000000000001 7.5 18
275 7.5 18
350.0000000000001 7.5 18
325 7.5 18
400 7.5 18
375.0000000000001 7.5 18
450 7.5 18
425 7.5 18
500 7.5 18
475 7.5 18
550 7.5 18
525 7.5 18
600.0000000000001 7.5 18
575 7.5 18
650 7.5 18
625 7.5 18
700.0000000000002 7.5 18
675.0000000000002 7.5 18
750 7.5 18
725.0000000000001 7.5 18
800 7.5 18
775 7.5 18
850.0000000000002 7.5 18
825.0000000000002 7.5 18
900 7.5 18
875.0000000000001 7.5 18
950.0000000000002 7.5 18
925.0000000000002 7.5 18
975.0000000000001 7.5 18
$EndNodes
$Elements
7 248 1 248
2 1 10 4
1 2 9 189 18 10 190 191 19 192 
2 18 189 15 4 191 193 16 20 194 
3 9 1 12 189 11 13 195 190 196 
4 189 12 3 15 195 14 17 193 197 
2 2 10 4
5 6 30 198 21 31 199 200 22 201 
6 30 8 27 198 32 28 202 199 203 
7 21 198 24 5 200 204 25 23 205 
8 198 27 7 24 202 29 26 204 206 
2 3 10 40
9 2 33 207 9 52 226 227 10 228 
10 9 207 72 1 227 229 91 11 230 
11 33 34 208 207 53 231 232 226 233 
12 207 208 73 72 232 234 92 229 235 
13 34 35 209 208 54 236 237 231 238 
14 208 209 74 73 237 239 93 234 240 
15 35 36 210 209 55 241 242 236 243 
16 209 210 75 74 242 244 94 239 245 
17 36 37 211 210 56 246 247 241 248 
18 210 211 76 75 247 249 95 244 250 
19 37 38 212 211 57 251 252 246 253 
20 211 212 77 76 252 254 96 249 255 
21 38 39 213 212 58 256 257 251 258 
22 212 213 78 77 257 259 97 254 260 
23 39 40 214 213 59 261 262 256 263 
24 213 214 79 78 262 264 98 259 265 
25 40 41 215 214 60 266 267 261 268 
26 214 215 80 79 267 269 99 264 270 
27 41 42 216 215 61 271 272 266 273 
28 215 216 81 80 272 274 100 269 275 
29 42 43 217 216 62 276 277 271 278 
30 216 217 82 81 277 279 101 274 280 
31 43 44 218 217 63 281 282 276 283 
32 217 218 83 82 282 284 102 279 285 
33 44 45 219 218 64 286 287 281 288 
34 218 219 84 83 287 289 103 284 290 
35 45 46 220 219 65 291 292 286 293 
36 219 220 85 84 292 294 104 289 295 
37 46 47 221 220 66 296 297 291 298 
38 220 221 86 85 297 299 105 294 300 
39 47 48 222 221 67 301 302 296 303 
40 221 222 87 86 302 304 106 299 305 
41 48 49 223 222 68 306 307 301 308 
42 222 223 88 87 307 309 107 304 310 
43 49 50 224 223 69 311 312 306 313 
44 223 224 89 88 312 314 108 309 315 
45 50 51 225 224 70 316 317 311 318 
46 224 225 90 89 317 319 109 314 320 
47 51 6 21 225 71 22 321 316 322 
48 225 21 5 90 321 23 110 319 323 
2 4 10 40
49 4 15 324 111 16 343 344 130 345 
50 15 3 150 324 17 169 346 343 347 
51 111 324 325 112 344 348 349 131 350 
52 324 150 151 325 346 170 351 348 352 
53 112 325 326 113 349 353 354 132 355 
54 325 151 152 326 351 171 356 353 357 
55 113 326 327 114 354 358 359 133 360 
56 326 152 153 327 356 172 361 358 362 
57 114 327 328 115 359 363 364 134 365 
58 327 153 154 328 361 173 366 363 367 
59 115 328 329 116 364 368 369 135 370 
60 328 154 155 329 366 174 371 368 372 
61 116 329 330 117 369 373 374 136 375 
62 329 155 156 330 371 175 376 373 377 
63 117 330 331 118 374 378 379 137 380 
64 330 156 157 331 376 176 381 378 382 
65 118 331 332 119 379 383 384 138 385 
66 331 157 158 332 381 177 386 383 387 
67 119 332 333 120 384 388 389 139 390 
68 332 158 159 333 386 178 391 388 392 
69 120 333 334 121 389 393 394 140 395 
70 333 159 160 334 391 179 396 393 397 
71 121 334 335 122 394 398 399 141 400 
72 334 160 161 335 396 180 401 398 402 
73 122 335 336 123 399 403 404 142 405 
74 335 161 162 336 401 181 406 403 407 
75 123 336 337 124 404 408 409 143 410 
76 336 162 163 337 406 182 411 408 412 
77 124 337 338 125 409 413 414 144 415 
78 337 163 164 338 411 183 416 413 417 
79 125 338 339 126 414 418 419 145 420 
80 338 164 165 339 416 184 421 418 422 
81 126 339 340 127 419 423 424 146 425 
82 339 165 166 340 421 185 426 423 427 
83 127 340 341 128 424 428 429 147 430 
84 340 166 167 341 426 186 431 428 432 
85 128 341 342 129 429 433 434 148 435 
86 341 167 168 342 431 187 436 433 437 
87 129 342 27 8 434 438 28 149 439 
88 342 168 7 27 436 188 29 438 440 
2 5 10 40
89 2 18 441 33 19 460 461 52 462 
90 33 441 442 34 461 463 464 53 465 
91 34 442 443 35 464 466 467 54 468 
92 35 443 444 36 467 469 470 55 471 
93 36 444 445 37 470 472 473 56 474 
94 37 445 446 38 473 475 476 57 477 
95 38 446 447 39 476 478 479 58 480 
96 39 447 448 40 479 481 482 59 483 
97 40 448 449 41 482 484 485 60 486 
98 41 449 450 42 485 487 488 61 489 
99 42 450 451 43 488 490 491 62 492 
100 43 451 452 44 491 493 494 63 495 
101 44 452 453 45 494 496 497 64 498 
102 45 453 454 46 497 499 500 65 501 
103 46 454 455 47 500 502 503 66 504 
104 47 455 456 48 503 505 506 67 507 
105 48 456 457 49 506 508 509 68 510 
106 49 457 458 50 509 511 512 69 513 
107 50 458 459 51 512 514 515 70 516 
108 51 459 30 6 515 517 31 71 518 
109 18 4 111 441 20 130 519 460 520 
110 441 111 112 442 519 131 521 463 522 
111 442 112 113 443 521 132 523 466 524 
112 443 113 114 444 523 133 525 469 526 
113 444 114 115 445 525 134 527 472 528 
114 445 115 116 446 527 135 529 475 530 
115 446 116 117 447 529 136 531 478 532 
116 447 117 118 448 531 137 533 481 534 
117 448 118 119 449 533 138 535 484 536 
118 449 119 120 450 535 139 537 487 538 
119 450 120 121 451 537 140 539 490 540 
120 451 121 122 452 539 141 541 493 542 
121 452 122 123 453 541 142 543 496 544 
122 453 123 124 454 543 143 545 499 546 
123 454 124 125 455 545 144 547 502 548 
124 455 125 126 456 547 145 549 505 550 
125 456 126 127 457 549 146 551 508 552 
126 457 127 128 458 551 147 553 511 554 
127 458 128 129 459 553 148 555 514 556 
128 459 129 8 30 555 149 32 517 557 
2 6 10 40
129 1 72 558 12 91 577 578 13 579 
130 72 73 559 558 92 580 581 577 582 
131 73 74 560 559 93 583 584 580 585 
132 74 75 561 560 94 586 587 583 588 
133 75 76 562 561 95 589 590 586 591 
134 76 77 563 562 96 592 593 589 594 
135 77 78 564 563 97 595 596 592 597 
136 78 79 565 564 98 598 599 595 600 
137 79 80 566 565 99 601 602 598 603 
138 80 81 567 566 100 604 605 601 606 
139 81 82 568 567 101 607 608 604 609 
140 82 83 569 568 102 610 611 607 612 
141 83 84 570 569 103 613 614 610 615 
142 84 85 571 570 104 616 617 613 618 
143 85 86 572 571 105 619 620 616 621 
144 86 87 573 572 106 622 623 619 624 
145 87 88 574 573 107 625 626 622 627 
146 88 89 575 574 108 628 629 625 630 
147 89 90 576 575 109 631 632 628 633 
148 90 5 24 576 110 25 634 631 635 
149 12 558 150 3 578 636 169 14 637 
150 558 559 151 150 581 638 170 636 639 
151 559 560 152 151 584 640 171 638 641 
152 560 561 153 152 587 642 172 640 643 
153 561 562 154 153 590 644 173 642 645 
154 562 563 155 154 593 646 174 644 647 
155 563 564 156 155 596 648 175 646 649 
156 564 565 157 156 599 650 176 648 651 
157 565 566 158 157 602 652 177 650 653 
158 566 567 159 158 605 654 178 652 655 
159 567 568 160 159 608 656 179 654 657 
160 568 569 161 160 611 658 180 656 659 
161 569 570 162 161 614 660 181 658 661 
162 570 571 163 162 617 662 182 660 663 
163 571 572 164 163 620 664 183 662 665 
164 572 573 165 164 623 666 184 664 667 
165 573 574 166 165 626 668 185 666 669 
166 574 575 167 166 629 670 186 668 671 
167 575 576 168 167 632 672 187 670 673 
168 576 24 7 168 634 26 188 672 674 
3 1 12 80
169 189 9 2 18 675 207 33 441 190 191 694 10 227 19 52 460 695 696 226 461 192 697 698 228 462 699 700 
170 675 207 33 441 676 208 34 442 695 696 701 226 232 461 53 463 702 703 231 464 699 704 705 233 465 706 707 
171 676 208 34 442 677 209 35 443 702 703 708 231 237 464 54 466 709 710 236 467 706 711 712 238 468 713 714 
172 677 209 35 443 678 210 36 444 709 710 715 236 242 467 55 469 716 717 241 470 713 718 719 243 471 720 721 
173 678 210 36 444 679 211 37 445 716 717 722 241 247 470 56 472 723 724 246 473 720 725 726 248 474 727 728 
174 679 211 37 445 680 212 38 446 723 724 729 246 252 473 57 475 730 731 251 476 727 732 733 253 477 734 735 
175 680 212 38 446 681 213 39 447 730 731 736 251 257 476 58 478 737 738 256 479 734 739 740 258 480 741 742 
176 681 213 39 447 682 214 40 448 737 738 743 256 262 479 59 481 744 745 261 482 741 746 747 263 483 748 749 
177 682 214 40 448 683 215 41 449 744 745 750 261 267 482 60 484 751 752 266 485 748 753 754 268 486 755 756 
178 683 215 41 449 684 216 42 450 751 752 757 266 272 485 61 487 758 759 271 488 755 760 761 273 489 762 763 
179 684 216 42 450 685 217 43 451 758 759 764 271 277 488 62 490 765 766 276 491 762 767 768 278 492 769 770 
180 685 217 43 451 686 218 44 452 765 766 771 276 282 491 63 493 772 773 281 494 769 774 775 283 495 776 777 
181 686 218 44 452 687 219 45 453 772 773 778 281 287 494 64 496 779 780 286 497 776 781 782 288 498 783 784 
182 687 219 45 453 688 220 46 454 779 780 785 286 292 497 65 499 786 787 291 500 783 788 789 293 501 790 791 
183 688 220 46 454 689 221 47 455 786 787 792 291 297 500 66 502 793 794 296 503 790 795 796 298 504 797 798 
184 689 221 47 455 690 222 48 456 793 794 799 296 302 503 67 505 800 801 301 506 797 802 803 303 507 804 805 
185 690 222 48 456 691 223 49 457 800 801 806 301 307 506 68 508 807 808 306 509 804 809 810 308 510 811 812 
186 691 223 49 457 692 224 50 458 807 808 813 306 312 509 69 511 814 815 311 512 811 816 817 313 513 818 819 
187 692 224 50 458 693 225 51 459 814 815 820 311 317 512 70 514 821 822 316 515 818 823 824 318 516 825 826 
188 693 225 51 459 198 21 6 30 821 822 827 316 321 515 71 517 200 199 22 31 825 828 829 322 518 201 830 
189 15 189 18 4 324 675 441 111 193 16 343 191 694 20 460 130 831 344 696 519 194 832 345 698 520 833 834 
190 324 675 441 111 325 676 442 112 831 344 348 696 701 519 463 131 835 349 703 521 833 836 350 705 522 837 838 
191 325 676 442 112 326 677 443 113 835 349 353 703 708 521 466 132 839 354 710 523 837 840 355 712 524 841 842 
192 326 677 443 113 327 678 444 114 839 354 358 710 715 523 469 133 843 359 717 525 841 844 360 719 526 845 846 
193 327 678 444 114 328 679 445 115 843 359 363 717 722 525 472 134 847 364 724 527 845 848 365 726 528 849 850 
194 328 679 445 115 329 680 446 116 847 364 368 724 729 527 475 135 851 369 731 529 849 852 370 733 530 853 854 
195 329 680 446 116 330 681 447 117 851 369 373 731 736 529 478 136 855 374 738 531 853 856 375 740 532 857 858 
196 330 681 447 117 331 682 448 118 855 374 378 738 743 531 481 137 859 379 745 533 857 860 380 747 534 861 862 
197 331 682 448 118 332 683 449 119 859 379 383 745 750 533 484 138 863 384 752 535 861 864 385 754 536 865 866 
198 332 683 449 119 333 684 450 120 863 384 388 752 757 535 487 139 867 389 759 537 865 868 390 761 538 869 870 
199 333 684 450 120 334 685 451 121 867 389 393 759 764 537 490 140 871 394 766 539 869 872 395 768 540 873 874 
200 334 685 451 121 335 686 452 122 871 394 398 766 771 539 493 141 875 399 773 541 873 876 400 775 542 877 878 
201 335 686 452 122 336 687 453 123 875 399 403 773 778 541 496 142 879 404 780 543 877 880 405 782 544 881 882 
202 336 687 453 123 337 688 454 124 879 404 408 780 785 543 499 143 883 409 787 545 881 884 410 789 546 885 886 
203 337 688 454 124 338 689 455 125 883 409 413 787 792 545 502 144 887 414 794 547 885 888 415 796 548 889 890 
204 338 689 455 125 339 690 456 126 887 414 418 794 799 547 505 145 891 419 801 549 889 892 420 803 550 893 894 
205 339 690 456 126 340 691 457 127 891 419 423 801 806 549 508 146 895 424 808 551 893 896 425 810 552 897 898 
206 340 691 457 127 341 692 458 128 895 424 428 808 813 551 511 147 899 429 815 553 897 900 430 817 554 901 902 
207 341 692 458 128 342 693 459 129 899 429 433 815 820 553 514 148 903 434 822 555 901 904 435 824 556 905 906 
208 342 693 459 129 27 198 30 8 903 434 438 822 827 555 517 149 202 28 199 32 905 907 439 829 557 203 908 
209 12 1 9 189 558 72 207 675 13 195 578 11 91 190 227 694 577 909 229 695 196 579 910 230 697 911 912 
210 558 72 207 675 559 73 208 676 577 909 581 229 92 695 232 701 580 913 234 702 911 582 914 235 704 915 916 
211 559 73 208 676 560 74 209 677 580 913 584 234 93 702 237 708 583 917 239 709 915 585 918 240 711 919 920 
212 560 74 209 677 561 75 210 678 583 917 587 239 94 709 242 715 586 921 244 716 919 588 922 245 718 923 924 
213 561 75 210 678 562 76 211 679 586 921 590 244 95 716 247 722 589 925 249 723 923 591 926 250 725 927 928 
214 562 76 211 679 563 77 212 680 589 925 593 249 96 723 252 729 592 929 254 730 927 594 930 255 732 931 932 
215 563 77 212 680 564 78 213 681 592 929 596 254 97 730 257 736 595 933 259 737 931 597 934 260 739 935 936 
216 564 78 213 681 565 79 214 682 595 933 599 259 98 737 262 743 598 937 264 744 935 600 938 265 746 939 940 
217 565 79 214 682 566 80 215 683 598 937 602 264 99 744 267 750 601 941 269 751 939 603 942 270 753 943 944 
218 566 80 215 683 567 81 216 684 601 941 605 269 100 751 272 757 604 945 274 758 943 606 946 275 760 947 948 
219 567 81 216 684 568 82 217 685 604 945 608 274 101 758 277 764 607 949 279 765 947 609 950 280 767 951 952 
220 568 82 217 685 569 83 218 686 607 949 611 279 102 765 282 771 610 953 284 772 951 612 954 285 774 955 956 
221 569 83 218 686 570 84 219 687 610 953 614 284 103 772 287 778 613 957 289 779 955 615 958 290 781 959 960 
222 570 84 219 687 571 85 220 688 613 957 617 289 104 779 292 785 616 961 294 786 959 618 962 295 788 963 964 
223 571 85 220 688 572 86 221 689 616 961 620 294 105 786 297 792 619 965 299 793 963 621 966 300 795 967 968 
224 572 86 221 689 573 87 222 690 619 965 623 299 106 793 302 799 622 969 304 800 967 624 970 305 802 971 972 
225 573 87 222 690 574 88 223 691 622 969 626 304 107 800 307 806 625 973 309 807 971 627 974 310 809 975 976 
226 574 88 223 691 575 89 224 692 625 973 629 309 108 807 312 813 628 977 314 814 975 630 978 315 816 979 980 
227 575 89 224 692 576 90 225 693 628 977 632 314 109 814 317 820 631 981 319 821 979 633 982 320 823 983 984 
228 576 90 225 693 24 5 21 198 631 981 634 319 110 821 321 827 25 204 23 200 983 635 985 323 828 205 986 
229 3 12 189 15 150 558 675 324 14 17 169 195 578 193 694 343 636 346 909 831 197 637 347 910 832 987 988 
230 150 558 675 324 151 559 676 325 636 346 170 909 581 831 701 348 638 351 913 835 987 639 352 914 836 989 990 
231 151 559 676 325 152 560 677 326 638 351 171 913 584 835 708 353 640 356 917 839 989 641 357 918 840 991 992 
232 152 560 677 326 153 561 678 327 640 356 172 917 587 839 715 358 642 361 921 843 991 643 362 922 844 993 994 
233 153 561 678 327 154 562 679 328 642 361 173 921 590 843 722 363 644 366 925 847 993 645 367 926 848 995 996 
234 154 562 679 328 155 563 680 329 644 366 174 925 593 847 729 368 646 371 929 851 995 647 372 930 852 997 998 
235 155 563 680 329 156 564 681 330 646 371 175 929 596 851 736 373 648 376 933 855 997 649 377 934 856 999 1000 
236 156 564 681 330 157 565 682 331 648 376 176 933 599 855 743 378 650 381 937 859 999 651 382 938 860 1001 1002 
237 157 565 682 331 158 566 683 332 650 381 177 937 602 859 750 383 652 386 941 863 1001 653 387 942 864 1003 1004 
238 158 566 683 332 159 567 684 333 652 386 178 941 605 863 757 388 654 391 945 867 1003 655 392 946 868 1005 1006 
239 159 567 684 333 160 568 685 334 654 391 179 945 608 867 764 393 656 396 949 871 1005 657 397 950 872 1007 1008 
240 160 568 685 334 161 569 686 335 656 396 180 949 611 871 771 398 658 401 953 875 1007 659 402 954 876 1009 1010 
241 161 569 686 335 162 570 687 336 658 401 181 953 614 875 778 403 660 406 957 879 1009 661 407 958 880 1011 1012 
242 162 570 687 336 163 571 688 337 660 406 182 957 617 879 785 408 662 411 961 883 1011 663 412 962 884 1013 1014 
243 163 571 688 337 164 572 689 338 662 411 183 961 620 883 792 413 664 416 965 887 1013 665 417 966 888 1015 1016 
244 164 572 689 338 165 573 690 339 664 416 184 965 623 887 799 418 666 421 969 891 1015 667 422 970 892 1017 1018 
245 165 573 690 339 166 574 691 340 666 421 185 969 626 891 806 423 668 426 973 895 1017 669 427 974 896 1019 1020 
246 166 574 691 340 167 575 692 341 668 426 186 973 629 895 813 428 670 431 977 899 1019 671 432 978 900 1021 1022 
247 167 575 692 341 168 576 693 342 670 431 187 977 632 899 820 433 672 436 981 903 1021 673 437 982 904 1023 1024 
248 168 576 693 342 7 24 198 27 672 436 188 981 634 903 827 438 26 29 204 202 1023 674 440 985 907 206 1025 
$EndElements
