$MeshFormat
4.1 0 8
$EndMeshFormat
$PhysicalNames
3
2 2 "Dirichlet"
2 3 "FreeSurface"
3 1 "Volume"
$EndPhysicalNames
$Entities
8 12 6 1
1 0 0 24 0 
2 0 0 0 0 
3 0 10 24 0 
4 0 10 0 0 
5 1000 0 24 0 
6 1000 0 0 0 
7 1000 10 24 0 
8 1000 10 0 0 
1 -1e-07 -1e-07 -9.99999993922529e-08 1e-07 1e-07 24.0000001 0 2 2 -1 
2 -1e-07 -1.000000002804313e-07 23.9999999 1e-07 10.0000001 24.0000001 0 2 1 -3 
3 -1e-07 9.999999900000001 -9.99999993922529e-08 1e-07 10.0000001 24.0000001 0 2 4 -3 
4 -1e-07 -1.000000002804313e-07 -1e-07 1e-07 10.0000001 1e-07 0 2 2 -4 
5 999.9999999 -1e-07 -9.99999993922529e-08 1000.0000001 1e-07 24.0000001 0 2 6 -5 
6 999.9999999 -1.000000002804313e-07 23.9999999 1000.0000001 10.0000001 24.0000001 0 2 5 -7 
7 999.9999999 9.999999900000001 -9.99999993922529e-08 1000.0000001 10.0000001 24.0000001 0 2 8 -7 
8 999.9999999 -1.000000002804313e-07 -1e-07 1000.0000001 10.0000001 1e-07 0 2 6 -8 
9 -1.000000224848918e-07 -1e-07 -1e-07 1000.0000001 1e-07 1e-07 0 2 2 -6 
10 -1.000000224848918e-07 -1e-07 23.9999999 1000.0000001 1e-07 24.0000001 0 2 1 -5 
11 -1.000000224848918e-07 9.999999900000001 -1e-07 1000.0000001 10.0000001 1e-07 0 2 4 -8 
12 -1.000000224848918e-07 9.999999900000001 23.9999999 1000.0000001 10.0000001 24.0000001 0 2 3 -7 
1 -1e-07 -1.000000002804313e-07 -9.99999993922529e-08 1e-07 10.0000001 24.0000001 1 2 4 -1 4 3 -2 
2 999.9999999 -1.000000002804313e-07 -9.99999993922529e-08 1000.0000001 10.0000001 24.0000001 1 2 4 -5 8 7 -6 
3 -1.000000224848918e-07 -1e-07 -9.99999993922529e-08 1000.0000001 1e-07 24.0000001 1 3 4 -9 1 10 -5 
4 -1.000000224848918e-07 9.999999900000001 -9.99999993922529e-08 1000.0000001 10.0000001 24.0000001 1 3 4 -11 3 12 -7 
5 -1.000000224848918e-07 -1.000000002804313e-07 -1e-07 1000.0000001 10.0000001 1e-07 1 3 4 -4 9 8 -11 
6 -1.000000224848918e-07 -1.000000002804313e-07 23.9999999 1000.0000001 10.0000001 24.0000001 1 3 4 -2 10 6 -12 
1 -1.000000224848918e-07 -1.000000002804313e-07 -9.99999993922529e-08 1000.0000001 10.0000001 24.0000001 1 1 6 -1 2 -3 4 -5 6 
$EndEntities
$Nodes
27 2025 1 2025
0 1 0 1
1
0 0 24
0 2 0 1
2
0 0 0
0 3 0 1
3
0 10 24
0 4 0 1
4
0 10 0
0 5 0 1
5
1000 0 24
0 6 0 1
6
1000 0 0
0 7 0 1
7
1000 10 24
0 8 0 1
8
1000 10 0
1 1 0 3
9
10
11
0 0 12
0 0 6
0 0 18
1 2 0 3
12
13
14
0 5 24
0 2.5 24
0 7.5 24
1 3 0 3
15
16
17
0 10 12
0 10 6
0 10 18
1 4 0 3
18
19
20
0 5 0
0 2.5 0
0 7.5 0
1 5 0 3
21
22
23
1000 0 12
1000 0 6
1000 0 18
1 6 0 3
24
25
26
1000 5 24
1000 2.5 24
1000 7.5 24
1 7 0 3
27
28
29
1000 10 12
1000 10 6
1000 10 18
1 8 0 3
30
31
32
1000 5 0
1000 2.5 0
1000 7.5 0
1 9 0 79
33
34
35
36
37
38
39
40
41
42
43
44
45
46
47
48
49
50
51
52
53
54
55
56
57
58
59
60
61
62
63
64
65
66
67
68
69
70
71
72
73
74
75
76
77
78
79
80
81
82
83
84
85
86
87
88
89
90
91
92
93
94
95
96
97
98
99
100
101
102
103
104
105
106
107
108
109
110
111
25 0 0
50 0 0
75.00000000000001 0 0
100 0 0
125 0 0
150 0 0
175 0 0
200 0 0
225 0 0
250 0 0
275 0 0
300.0000000000001 0 0
325 0 0
350.0000000000001 0 0
375 0 0
400 0 0
425.0000000000001 0 0
450 0 0
475.0000000000001 0 0
500 0 0
525 0 0
550 0 0
575.0000000000001 0 0
600.0000000000001 0 0
625 0 0
650 0 0
675 0 0
700.0000000000001 0 0
725.0000000000001 0 0
750 0 0
775 0 0
800 0 0
825.0000000000001 0 0
850.0000000000001 0 0
875 0 0
900 0 0
925 0 0
950.0000000000001 0 0
975.0000000000001 0 0
12.5 0 0
37.5 0 0
62.50000000000001 0 0
87.50000000000001 0 0
112.5 0 0
137.5 0 0
162.5 0 0
187.5 0 0
212.5 0 0
237.5 0 0
262.5 0 0
287.5 0 0
312.5 0 0
337.5 0 0
362.5 0 0
387.5 0 0
412.5 0 0
437.5 0 0
462.5 0 0
487.5 0 0
512.5 0 0
537.5 0 0
562.5 0 0
587.5000000000001 0 0
612.5 0 0
637.5 0 0
662.5 0 0
687.5 0 0
712.5000000000001 0 0
737.5 0 0
762.5 0 0
787.5 0 0
812.5 0 0
837.5000000000001 0 0
862.5 0 0
887.5 0 0
912.5 0 0
937.5 0 0
962.5000000000001 0 0
987.5 0 0
1 10 0 79
112
113
114
115
116
117
118
119
120
121
122
123
124
125
126
127
128
129
130
131
132
133
134
135
136
137
138
139
140
141
142
143
144
145
146
147
148
149
150
151
152
153
154
155
156
157
158
159
160
161
162
163
164
165
166
167
168
169
170
171
172
173
174
175
176
177
178
179
180
181
182
183
184
185
186
187
188
189
190
25 0 24
50 0 24
75.00000000000001 0 24
100 0 24
125 0 24
150 0 24
175 0 24
200 0 24
225 0 24
250 0 24
275 0 24
300.0000000000001 0 24
325 0 24
350.0000000000001 0 24
375 0 24
400 0 24
425.0000000000001 0 24
450 0 24
475.0000000000001 0 24
500 0 24
525 0 24
550 0 24
575.0000000000001 0 24
600.0000000000001 0 24
625 0 24
650 0 24
675 0 24
700.0000000000001 0 24
725.0000000000001 0 24
750 0 24
775 0 24
800 0 24
825.0000000000001 0 24
850.0000000000001 0 24
875 0 24
900 0 24
925 0 24
950.0000000000001 0 24
975.0000000000001 0 24
12.5 0 24
37.5 0 24
62.50000000000001 0 24
87.50000000000001 0 24
112.5 0 24
137.5 0 24
162.5 0 24
187.5 0 24
212.5 0 24
237.5 0 24
262.5 0 24
287.5 0 24
312.5 0 24
337.5 0 24
362.5 0 24
387.5 0 24
412.5 0 24
437.5 0 24
462.5 0 24
487.5 0 24
512.5 0 24
537.5 0 24
562.5 0 24
587.5000000000001 0 24
612.5 0 24
637.5 0 24
662.5 0 24
687.5 0 24
712.5000000000001 0 24
737.5 0 24
762.5 0 24
787.5 0 24
812.5 0 24
837.5000000000001 0 24
862.5 0 24
887.5 0 24
912.5 0 24
937.5 0 24
962.5000000000001 0 24
987.5 0 24
1 11 0 79
191
192
193
194
195
196
197
198
199
200
201
202
203
204
205
206
207
208
209
210
211
212
213
214
215
216
217
218
219
220
221
222
223
224
225
226
227
228
229
230
231
232
233
234
235
236
237
238
239
240
241
242
243
244
245
246
247
248
249
250
251
252
253
254
255
256
257
258
259
260
261
262
263
264
265
266
267
268
269
25 10 0
50 10 0
75.00000000000001 10 0
100 10 0
125 10 0
150 10 0
175 10 0
200 10 0
225 10 0
250 10 0
275 10 0
300.0000000000001 10 0
325 10 0
350.0000000000001 10 0
375 10 0
400 10 0
425.0000000000001 10 0
450 10 0
475.0000000000001 10 0
500 10 0
525 10 0
550 10 0
575.0000000000001 10 0
600.0000000000001 10 0
625 10 0
650 10 0
675 10 0
700.0000000000001 10 0
725.0000000000001 10 0
750 10 0
775 10 0
800 10 0
825.0000000000001 10 0
850.0000000000001 10 0
875 10 0
900 10 0
925 10 0
950.0000000000001 10 0
975.0000000000001 10 0
12.5 10 0
37.5 10 0
62.50000000000001 10 0
87.50000000000001 10 0
112.5 10 0
137.5 10 0
162.5 10 0
187.5 10 0
212.5 10 0
237.5 10 0
262.5 10 0
287.5 10 0
312.5 10 0
337.5 10 0
362.5 10 0
387.5 10 0
412.5 10 0
437.5 10 0
462.5 10 0
487.5 10 0
512.5 10 0
537.5 10 0
562.5 10 0
587.5000000000001 10 0
612.5 10 0
637.5 10 0
662.5 10 0
687.5 10 0
712.5000000000001 10 0
737.5 10 0
762.5 10 0
787.5 10 0
812.5 10 0
837.5000000000001 10 0
862.5 10 0
887.5 10 0
912.5 10 0
937.5 10 0
962.5000000000001 10 0
987.5 10 0
1 12 0 79
270
271
272
273
274
275
276
277
278
279
280
281
282
283
284
285
286
287
288
289
290
291
292
293
294
295
296
297
298
299
300
301
302
303
304
305
306
307
308
309
310
311
312
313
314
315
316
317
318
319
320
321
322
323
324
325
326
327
328
329
330
331
332
333
334
335
336
337
338
339
340
341
342
343
344
345
346
347
348
25 10 24
50 10 24
75.00000000000001 10 24
100 10 24
125 10 24
150 10 24
175 10 24
200 10 24
225 10 24
250 10 24
275 10 24
300.0000000000001 10 24
325 10 24
350.0000000000001 10 24
375 10 24
400 10 24
425.0000000000001 10 24
450 10 24
475.0000000000001 10 24
500 10 24
525 10 24
550 10 24
575.0000000000001 10 24
600.0000000000001 10 24
625 10 24
650 10 24
675 10 24
700.0000000000001 10 24
725.0000000000001 10 24
750 10 24
775 10 24
800 10 24
825.0000000000001 10 24
850.0000000000001 10 24
875 10 24
900 10 24
925 10 24
950.0000000000001 10 24
975.0000000000001 10 24
12.5 10 24
37.5 10 24
62.50000000000001 10 24
87.50000000000001 10 24
112.5 10 24
137.5 10 24
162.5 10 24
187.5 10 24
212.5 10 24
237.5 10 24
262.5 10 24
287.5 10 24
312.5 10 24
337.5 10 24
362.5 10 24
387.5 10 24
412.5 10 24
437.5 10 24
462.5 10 24
487.5 10 24
512.5 10 24
537.5 10 24
562.5 10 24
587.5000000000001 10 24
612.5 10 24
637.5 10 24
662.5 10 24
687.5 10 24
712.5000000000001 10 24
737.5 10 24
762.5 10 24
787.5 10 24
812.5 10 24
837.5000000000001 10 24
862.5 10 24
887.5 10 24
912.5 10 24
937.5 10 24
962.5000000000001 10 24
987.5 10 24
2 1 0 9
349
350
351
352
353
354
355
356
357
0 5 12
0 2.5 12
0 5 6
0 2.5 6
0 7.5 12
0 7.5 6
0 5 18
0 2.5 18
0 7.5 18
2 2 0 9
358
359
360
361
362
363
364
365
366
1000 5 12
1000 5 6
1000 2.5 12
1000 2.5 6
1000 7.5 12
1000 7.5 6
1000 5 18
1000 2.5 18
1000 7.5 18
2 3 0 237
367
368
369
370
371
372
373
374
375
376
377
378
379
380
381
382
383
384
385
386
387
388
389
390
391
392
393
394
395
396
397
398
399
400
401
402
403
404
405
406
407
408
409
410
411
412
413
414
415
416
417
418
419
420
421
422
423
424
425
426
427
428
429
430
431
432
433
434
435
436
437
438
439
440
441
442
443
444
445
446
447
448
449
450
451
452
453
454
455
456
457
458
459
460
461
462
463
464
465
466
467
468
469
470
471
472
473
474
475
476
477
478
479
480
481
482
483
484
485
486
487
488
489
490
491
492
493
494
495
496
497
498
499
500
501
502
503
504
505
506
507
508
509
510
511
512
513
514
515
516
517
518
519
520
521
522
523
524
525
526
527
528
529
530
531
532
533
534
535
536
537
538
539
540
541
542
543
544
545
546
547
548
549
550
551
552
553
554
555
556
557
558
559
560
561
562
563
564
565
566
567
568
569
570
571
572
573
574
575
576
577
578
579
580
581
582
583
584
585
586
587
588
589
590
591
592
593
594
595
596
597
598
599
600
601
602
603
25 0 12
50 0 12
75.00000000000001 0 12
100 0 12
125 0 12
150 0 12
175 0 12
200 0 12
225 0 12
250 0 12
275 0 12
300.0000000000001 0 12
325 0 12
350.0000000000001 0 12
375 0 12
400 0 12
425.0000000000001 0 12
450 0 12
475.0000000000001 0 12
500 0 12
525 0 12
550 0 12
575.0000000000001 0 12
600.0000000000001 0 12
625 0 12
650 0 12
675 0 12
700.0000000000001 0 12
725.0000000000001 0 12
750 0 12
775 0 12
800 0 12
825.0000000000001 0 12
850.0000000000001 0 12
875 0 12
900 0 12
925 0 12
950.0000000000001 0 12
975.0000000000001 0 12
25 0 6
12.5 0 12
12.5 0 6
25 0 18
12.5 0 18
50 0 6
37.5 0 12
37.5 0 6
50 0 18
37.5 0 18
75.00000000000001 0 6
62.50000000000001 0 12
62.50000000000001 0 6
75.00000000000001 0 18
62.50000000000001 0 18
100 0 6
87.5 0 12
87.50000000000001 0 6
100 0 18
87.50000000000001 0 18
125 0 6
112.5 0 12
112.5 0 6
125 0 18
112.5 0 18
150 0 6
137.5 0 12
137.5 0 6
150 0 18
137.5 0 18
175 0 6
162.5 0 12
162.5 0 6
175 0 18
162.5 0 18
200 0 6
187.5 0 12
187.5 0 6
200 0 18
187.5 0 18
225 0 6
212.5 0 12
212.5 0 6
225 0 18
212.5 0 18
250 0 6
237.5 0 12
237.5 0 6
250 0 18
237.5 0 18
275 0 6
262.5 0 12
262.5 0 6
275 0 18
262.5 0 18
300.0000000000001 0 6
287.5 0 12
287.5 0 6
300.0000000000001 0 18
287.5 0 18
325 0 6
312.5 0 12
312.5 0 6
325 0 18
312.5 0 18
350.0000000000001 0 6
337.5 0 12
337.5 0 6
350.0000000000001 0 18
337.5 0 18
375 0 6
362.5 0 12
362.5 0 6
375 0 18
362.5 0 18
400 0 6
387.5 0 12
387.5 0 6
400 0 18
387.5 0 18
425.0000000000001 0 6
412.5 0 12
412.5 0 6
425.0000000000001 0 18
412.5 0 18
450 0 6
437.5 0 12
437.5 0 6
450 0 18
437.5 0 18
475.0000000000001 0 6
462.5 0 12
462.5 0 6
475.0000000000001 0 18
462.5 0 18
500 0 6
487.5 0 12
487.5 0 6
500 0 18
487.5 0 18
525 0 6
512.5 0 12
512.5 0 6
525 0 18
512.5 0 18
550 0 6
537.5 0 12
537.5 0 6
550 0 18
537.5 0 18
575.0000000000001 0 6
562.5 0 12
562.5 0 6
575.0000000000001 0 18
562.5 0 18
600.0000000000001 0 6
587.5000000000001 0 12
587.5000000000001 0 6
600.0000000000001 0 18
587.5000000000001 0 18
625 0 6
612.5 0 12
612.5 0 6
625 0 18
612.5 0 18
650 0 6
637.5 0 12
637.5 0 6
650 0 18
637.5 0 18
675 0 6
662.5 0 12
662.5 0 6
675 0 18
662.5 0 18
700.0000000000001 0 6
687.5 0 12
687.5 0 6
700.0000000000001 0 18
687.5 0 18
725.0000000000001 0 6
712.5000000000001 0 12
712.5000000000001 0 6
725.0000000000001 0 18
712.5000000000001 0 18
750 0 6
737.5 0 12
737.5 0 6
750 0 18
737.5 0 18
775 0 6
762.5 0 12
762.5 0 6
775 0 18
762.5 0 18
800 0 6
787.5 0 12
787.5 0 6
800 0 18
787.5 0 18
825.0000000000001 0 6
812.5 0 12
812.5 0 6
825.0000000000001 0 18
812.5 0 18
850.0000000000001 0 6
837.5000000000001 0 12
837.5000000000001 0 6
850.0000000000001 0 18
837.5000000000001 0 18
875 0 6
862.5 0 12
862.5 0 6
875 0 18
862.5 0 18
900 0 6
887.5 0 12
887.5 0 6
900 0 18
887.5 0 18
925 0 6
912.5 0 12
912.5 0 6
925 0 18
912.5 0 18
950.0000000000001 0 6
937.5 0 12
937.5 0 6
950.0000000000001 0 18
937.5 0 18
975.0000000000001 0 6
962.5000000000001 0 12
962.5000000000001 0 6
975.0000000000001 0 18
962.5000000000001 0 18
987.5 0 12
987.5 0 6
987.5 0 18
2 4 0 237
604
605
606
607
608
609
610
611
612
613
614
615
616
617
618
619
620
621
622
623
624
625
626
627
628
629
630
631
632
633
634
635
636
637
638
639
640
641
642
643
644
645
646
647
648
649
650
651
652
653
654
655
656
657
658
659
660
661
662
663
664
665
666
667
668
669
670
671
672
673
674
675
676
677
678
679
680
681
682
683
684
685
686
687
688
689
690
691
692
693
694
695
696
697
698
699
700
701
702
703
704
705
706
707
708
709
710
711
712
713
714
715
716
717
718
719
720
721
722
723
724
725
726
727
728
729
730
731
732
733
734
735
736
737
738
739
740
741
742
743
744
745
746
747
748
749
750
751
752
753
754
755
756
757
758
759
760
761
762
763
764
765
766
767
768
769
770
771
772
773
774
775
776
777
778
779
780
781
782
783
784
785
786
787
788
789
790
791
792
793
794
795
796
797
798
799
800
801
802
803
804
805
806
807
808
809
810
811
812
813
814
815
816
817
818
819
820
821
822
823
824
825
826
827
828
829
830
831
832
833
834
835
836
837
838
839
840
25 10 12
50 10 12
75.00000000000001 10 12
100 10 12
125 10 12
150 10 12
175 10 12
200 10 12
225 10 12
250 10 12
275 10 12
300.0000000000001 10 12
325 10 12
350.0000000000001 10 12
375 10 12
400 10 12
425.0000000000001 10 12
450 10 12
475.0000000000001 10 12
500 10 12
525 10 12
550 10 12
575.0000000000001 10 12
600.0000000000001 10 12
625 10 12
650 10 12
675 10 12
700.0000000000001 10 12
725.0000000000001 10 12
750 10 12
775 10 12
800 10 12
825.0000000000001 10 12
850.0000000000001 10 12
875 10 12
900 10 12
925 10 12
950.0000000000001 10 12
975.0000000000001 10 12
12.5 10 12
25 10 6
12.5 10 6
25 10 18
12.5 10 18
37.5 10 12
50 10 6
37.5 10 6
50 10 18
37.5 10 18
62.50000000000001 10 12
75.00000000000001 10 6
62.50000000000001 10 6
75.00000000000001 10 18
62.50000000000001 10 18
87.5 10 12
100 10 6
87.50000000000001 10 6
100 10 18
87.50000000000001 10 18
112.5 10 12
125 10 6
112.5 10 6
125 10 18
112.5 10 18
137.5 10 12
150 10 6
137.5 10 6
150 10 18
137.5 10 18
162.5 10 12
175 10 6
162.5 10 6
175 10 18
162.5 10 18
187.5 10 12
200 10 6
187.5 10 6
200 10 18
187.5 10 18
212.5 10 12
225 10 6
212.5 10 6
225 10 18
212.5 10 18
237.5 10 12
250 10 6
237.5 10 6
250 10 18
237.5 10 18
262.5 10 12
275 10 6
262.5 10 6
275 10 18
262.5 10 18
287.5 10 12
300.0000000000001 10 6
287.5 10 6
300.0000000000001 10 18
287.5 10 18
312.5 10 12
325 10 6
312.5 10 6
325 10 18
312.5 10 18
337.5 10 12
350.0000000000001 10 6
337.5 10 6
350.0000000000001 10 18
337.5 10 18
362.5 10 12
375 10 6
362.5 10 6
375 10 18
362.5 10 18
387.5 10 12
400 10 6
387.5 10 6
400 10 18
387.5 10 18
412.5 10 12
425.0000000000001 10 6
412.5 10 6
425.0000000000001 10 18
412.5 10 18
437.5 10 12
450 10 6
437.5 10 6
450 10 18
437.5 10 18
462.5 10 12
475.0000000000001 10 6
462.5 10 6
475.0000000000001 10 18
462.5 10 18
487.5 10 12
500 10 6
487.5 10 6
500 10 18
487.5 10 18
512.5 10 12
525 10 6
512.5 10 6
525 10 18
512.5 10 18
537.5 10 12
550 10 6
537.5 10 6
550 10 18
537.5 10 18
562.5 10 12
575.0000000000001 10 6
562.5 10 6
575.0000000000001 10 18
562.5 10 18
587.5000000000001 10 12
600.0000000000001 10 6
587.5000000000001 10 6
600.0000000000001 10 18
587.5000000000001 10 18
612.5 10 12
625 10 6
612.5 10 6
625 10 18
612.5 10 18
637.5 10 12
650 10 6
637.5 10 6
650 10 18
637.5 10 18
662.5 10 12
675 10 6
662.5 10 6
675 10 18
662.5 10 18
687.5 10 12
700.0000000000001 10 6
687.5 10 6
700.0000000000001 10 18
687.5 10 18
712.5000000000001 10 12
725.0000000000001 10 6
712.5000000000001 10 6
725.0000000000001 10 18
712.5000000000001 10 18
737.5 10 12
750 10 6
737.5 10 6
750 10 18
737.5 10 18
762.5 10 12
775 10 6
762.5 10 6
775 10 18
762.5 10 18
787.5 10 12
800 10 6
787.5 10 6
800 10 18
787.5 10 18
812.5 10 12
825.0000000000001 10 6
812.5 10 6
825.0000000000001 10 18
812.5 10 18
837.5000000000001 10 12
850.0000000000001 10 6
837.5000000000001 10 6
850.0000000000001 10 18
837.5000000000001 10 18
862.5 10 12
875 10 6
862.5 10 6
875 10 18
862.5 10 18
887.5 10 12
900 10 6
887.5 10 6
900 10 18
887.5 10 18
912.5 10 12
925 10 6
912.5 10 6
925 10 18
912.5 10 18
937.5 10 12
950.0000000000001 10 6
937.5 10 6
950.0000000000001 10 18
937.5 10 18
962.5000000000001 10 12
975.0000000000001 10 6
962.5000000000001 10 6
975.0000000000001 10 18
962.5000000000001 10 18
987.5 10 12
987.5 10 6
987.5 10 18
2 5 0 237
841
842
843
844
845
846
847
848
849
850
851
852
853
854
855
856
857
858
859
860
861
862
863
864
865
866
867
868
869
870
871
872
873
874
875
876
877
878
879
880
881
882
883
884
885
886
887
888
889
890
891
892
893
894
895
896
897
898
899
900
901
902
903
904
905
906
907
908
909
910
911
912
913
914
915
916
917
918
919
920
921
922
923
924
925
926
927
928
929
930
931
932
933
934
935
936
937
938
939
940
941
942
943
944
945
946
947
948
949
950
951
952
953
954
955
956
957
958
959
960
961
962
963
964
965
966
967
968
969
970
971
972
973
974
975
976
977
978
979
980
981
982
983
984
985
986
987
988
989
990
991
992
993
994
995
996
997
998
999
1000
1001
1002
1003
1004
1005
1006
1007
1008
1009
1010
1011
1012
1013
1014
1015
1016
1017
1018
1019
1020
1021
1022
1023
1024
1025
1026
1027
1028
1029
1030
1031
1032
1033
1034
1035
1036
1037
1038
1039
1040
1041
1042
1043
1044
1045
1046
1047
1048
1049
1050
1051
1052
1053
1054
1055
1056
1057
1058
1059
1060
1061
1062
1063
1064
1065
1066
1067
1068
1069
1070
1071
1072
1073
1074
1075
1076
1077
25 5 0
50 5 0
75.00000000000001 5 0
100 5 0
125 5 0
150 5 0
175 5 0
200 5 0
225 5 0
250 5 0
275 5 0
300.0000000000001 5 0
325 5 0
350.0000000000001 5 0
375 5 0
400 5 0
425.0000000000001 5 0
450 5 0
475.0000000000001 5 0
500 5 0
525 5 0
550 5 0
575.0000000000001 5 0
600.0000000000001 5 0
625 5 0
650 5 0
675 5 0
700.0000000000001 5 0
725.0000000000001 5 0
750 5 0
775 5 0
800 5 0
825.0000000000001 5 0
850.0000000000001 5 0
875 5 0
900 5 0
925 5 0
950.0000000000001 5 0
975.0000000000001 5 0
12.5 5 0
25 2.5 0
12.5 2.5 0
37.5 5 0
50 2.5 0
37.5 2.5 0
62.50000000000001 5 0
75.00000000000001 2.5 0
62.50000000000001 2.5 0
87.5 5 0
100 2.5 0
87.50000000000001 2.5 0
112.5 5 0
125 2.5 0
112.5 2.5 0
137.5 5 0
150 2.5 0
137.5 2.5 0
162.5 5 0
175 2.5 0
162.5 2.5 0
187.5 5 0
200 2.5 0
187.5 2.5 0
212.5 5 0
225 2.5 0
212.5 2.5 0
237.5 5 0
250 2.5 0
237.5 2.5 0
262.5 5 0
275 2.5 0
262.5 2.5 0
287.5 5 0
300.0000000000001 2.5 0
287.5 2.5 0
312.5 5 0
325 2.5 0
312.5 2.5 0
337.5 5 0
350.0000000000001 2.5 0
337.5 2.5 0
362.5 5 0
375 2.5 0
362.5 2.5 0
387.5 5 0
400 2.5 0
387.5 2.5 0
412.5 5 0
425.0000000000001 2.5 0
412.5 2.5 0
437.5 5 0
450 2.5 0
437.5 2.5 0
462.5 5 0
475.0000000000001 2.5 0
462.5 2.5 0
487.5 5 0
500 2.5 0
487.5 2.5 0
512.5 5 0
525 2.5 0
512.5 2.5 0
537.5 5 0
550 2.5 0
537.5 2.5 0
562.5 5 0
575.0000000000001 2.5 0
562.5 2.5 0
587.5000000000001 5 0
600.0000000000001 2.5 0
587.5000000000001 2.5 0
612.5 5 0
625 2.5 0
612.5 2.5 0
637.5 5 0
650 2.5 0
637.5 2.5 0
662.5 5 0
675 2.5 0
662.5 2.5 0
687.5 5 0
700.0000000000001 2.5 0
687.5 2.5 0
712.5000000000001 5 0
725.0000000000001 2.5 0
712.5000000000001 2.5 0
737.5 5 0
750 2.5 0
737.5 2.5 0
762.5 5 0
775 2.5 0
762.5 2.5 0
787.5 5 0
800 2.5 0
787.5 2.5 0
812.5 5 0
825.0000000000001 2.5 0
812.5 2.5 0
837.5000000000001 5 0
850.0000000000001 2.5 0
837.5000000000001 2.5 0
862.5 5 0
875 2.5 0
862.5 2.5 0
887.5 5 0
900 2.5 0
887.5 2.5 0
912.5 5 0
925 2.5 0
912.5 2.5 0
937.5 5 0
950.0000000000001 2.5 0
937.5 2.5 0
962.5000000000001 5 0
975.0000000000001 2.5 0
962.5000000000001 2.5 0
987.5 5 0
987.5 2.5 0
25 7.5 0
12.5 7.5 0
50 7.5 0
37.5 7.5 0
75.00000000000001 7.5 0
62.50000000000001 7.5 0
100 7.5 0
87.50000000000001 7.5 0
125 7.5 0
112.5 7.5 0
150 7.5 0
137.5 7.5 0
175 7.5 0
162.5 7.5 0
200 7.5 0
187.5 7.5 0
225 7.5 0
212.5 7.5 0
250 7.5 0
237.5 7.5 0
275 7.5 0
262.5 7.5 0
300.0000000000001 7.5 0
287.5 7.5 0
325 7.5 0
312.5 7.5 0
350.0000000000001 7.5 0
337.5 7.5 0
375 7.5 0
362.5 7.5 0
400 7.5 0
387.5 7.5 0
425.0000000000001 7.5 0
412.5 7.5 0
450 7.5 0
437.5 7.5 0
475.0000000000001 7.5 0
462.5 7.5 0
500 7.5 0
487.5 7.5 0
525 7.5 0
512.5 7.5 0
550 7.5 0
537.5 7.5 0
575.0000000000001 7.5 0
562.5 7.5 0
600.0000000000001 7.5 0
587.5000000000001 7.5 0
625 7.5 0
612.5 7.5 0
650 7.5 0
637.5 7.5 0
675 7.5 0
662.5 7.5 0
700.0000000000001 7.5 0
687.5 7.5 0
725.0000000000001 7.5 0
712.5000000000001 7.5 0
750 7.5 0
737.5 7.5 0
775 7.5 0
762.5 7.5 0
800 7.5 0
787.5 7.5 0
825.0000000000001 7.5 0
812.5 7.5 0
850.0000000000001 7.5 0
837.5000000000001 7.5 0
875 7.5 0
862.5 7.5 0
900 7.5 0
887.5 7.5 0
925 7.5 0
912.5 7.5 0
950.0000000000001 7.5 0
937.5 7.5 0
975.0000000000001 7.5 0
962.5000000000001 7.5 0
987.5 7.5 0
2 6 0 237
1078
1079
1080
1081
1082
1083
1084
1085
1086
1087
1088
1089
1090
1091
1092
1093
1094
1095
1096
1097
1098
1099
1100
1101
1102
1103
1104
1105
1106
1107
1108
1109
1110
1111
1112
1113
1114
1115
1116
1117
1118
1119
1120
1121
1122
1123
1124
1125
1126
1127
1128
1129
1130
1131
1132
1133
1134
1135
1136
1137
1138
1139
1140
1141
1142
1143
1144
1145
1146
1147
1148
1149
1150
1151
1152
1153
1154
1155
1156
1157
1158
1159
1160
1161
1162
1163
1164
1165
1166
1167
1168
1169
1170
1171
1172
1173
1174
1175
1176
1177
1178
1179
1180
1181
1182
1183
1184
1185
1186
1187
1188
1189
1190
1191
1192
1193
1194
1195
1196
1197
1198
1199
1200
1201
1202
1203
1204
1205
1206
1207
1208
1209
1210
1211
1212
1213
1214
1215
1216
1217
1218
1219
1220
1221
1222
1223
1224
1225
1226
1227
1228
1229
1230
1231
1232
1233
1234
1235
1236
1237
1238
1239
1240
1241
1242
1243
1244
1245
1246
1247
1248
1249
1250
1251
1252
1253
1254
1255
1256
1257
1258
1259
1260
1261
1262
1263
1264
1265
1266
1267
1268
1269
1270
1271
1272
1273
1274
1275
1276
1277
1278
1279
1280
1281
1282
1283
1284
1285
1286
1287
1288
1289
1290
1291
1292
1293
1294
1295
1296
1297
1298
1299
1300
1301
1302
1303
1304
1305
1306
1307
1308
1309
1310
1311
1312
1313
1314
25 5 24
50 5 24
75.00000000000001 5 24
100 5 24
125 5 24
150 5 24
175 5 24
200 5 24
225 5 24
250 5 24
275 5 24
300.0000000000001 5 24
325 5 24
350.0000000000001 5 24
375 5 24
400 5 24
425.0000000000001 5 24
450 5 24
475.0000000000001 5 24
500 5 24
525 5 24
550 5 24
575.0000000000001 5 24
600.0000000000001 5 24
625 5 24
650 5 24
675 5 24
700.0000000000001 5 24
725.0000000000001 5 24
750 5 24
775 5 24
800 5 24
825.0000000000001 5 24
850.0000000000001 5 24
875 5 24
900 5 24
925 5 24
950.0000000000001 5 24
975.0000000000001 5 24
25 2.5 24
12.5 5 24
12.5 2.5 24
50 2.5 24
37.5 5 24
37.5 2.5 24
75.00000000000001 2.5 24
62.50000000000001 5 24
62.50000000000001 2.5 24
100 2.5 24
87.5 5 24
87.50000000000001 2.5 24
125 2.5 24
112.5 5 24
112.5 2.5 24
150 2.5 24
137.5 5 24
137.5 2.5 24
175 2.5 24
162.5 5 24
162.5 2.5 24
200 2.5 24
187.5 5 24
187.5 2.5 24
225 2.5 24
212.5 5 24
212.5 2.5 24
250 2.5 24
237.5 5 24
237.5 2.5 24
275 2.5 24
262.5 5 24
262.5 2.5 24
300.0000000000001 2.5 24
287.5 5 24
287.5 2.5 24
325 2.5 24
312.5 5 24
312.5 2.5 24
350.0000000000001 2.5 24
337.5 5 24
337.5 2.5 24
375 2.5 24
362.5 5 24
362.5 2.5 24
400 2.5 24
387.5 5 24
387.5 2.5 24
425.0000000000001 2.5 24
412.5 5 24
412.5 2.5 24
450 2.5 24
437.5 5 24
437.5 2.5 24
475.0000000000001 2.5 24
462.5 5 24
462.5 2.5 24
500 2.5 24
487.5 5 24
487.5 2.5 24
525 2.5 24
512.5 5 24
512.5 2.5 24
550 2.5 24
537.5 5 24
537.5 2.5 24
575.0000000000001 2.5 24
562.5 5 24
562.5 2.5 24
600.0000000000001 2.5 24
587.5000000000001 5 24
587.5000000000001 2.5 24
625 2.5 24
612.5 5 24
612.5 2.5 24
650 2.5 24
637.5 5 24
637.5 2.5 24
675 2.5 24
662.5 5 24
662.5 2.5 24
700.0000000000001 2.5 24
687.5 5 24
687.5 2.5 24
725.0000000000001 2.5 24
712.5000000000001 5 24
712.5000000000001 2.5 24
750 2.5 24
737.5 5 24
737.5 2.5 24
775 2.5 24
762.5 5 24
762.5 2.5 24
800 2.5 24
787.5 5 24
787.5 2.5 24
825.0000000000001 2.5 24
812.5 5 24
812.5 2.5 24
850.0000000000001 2.5 24
837.5000000000001 5 24
837.5000000000001 2.5 24
875 2.5 24
862.5 5 24
862.5 2.5 24
900 2.5 24
887.5 5 24
887.5 2.5 24
925 2.5 24
912.5 5 24
912.5 2.5 24
950.0000000000001 2.5 24
937.5 5 24
937.5 2.5 24
975.0000000000001 2.5 24
962.5000000000001 5 24
962.5000000000001 2.5 24
987.5 5 24
987.5 2.5 24
25 7.5 24
12.5 7.5 24
50 7.5 24
37.5 7.5 24
75.00000000000001 7.5 24
62.50000000000001 7.5 24
100 7.5 24
87.50000000000001 7.5 24
125 7.5 24
112.5 7.5 24
150 7.5 24
137.5 7.5 24
175 7.5 24
162.5 7.5 24
200 7.5 24
187.5 7.5 24
225 7.5 24
212.5 7.5 24
250 7.5 24
237.5 7.5 24
275 7.5 24
262.5 7.5 24
300.0000000000001 7.5 24
287.5 7.5 24
325 7.5 24
312.5 7.5 24
350.0000000000001 7.5 24
337.5 7.5 24
375 7.5 24
362.5 7.5 24
400 7.5 24
387.5 7.5 24
425.0000000000001 7.5 24
412.5 7.5 24
450 7.5 24
437.5 7.5 24
475.0000000000001 7.5 24
462.5 7.5 24
500 7.5 24
487.5 7.5 24
525 7.5 24
512.5 7.5 24
550 7.5 24
537.5 7.5 24
575.0000000000001 7.5 24
562.5 7.5 24
600.0000000000001 7.5 24
587.5000000000001 7.5 24
625 7.5 24
612.5 7.5 24
650 7.5 24
637.5 7.5 24
675 7.5 24
662.5 7.5 24
700.0000000000001 7.5 24
687.5 7.5 24
725.0000000000001 7.5 24
712.5000000000001 7.5 24
750 7.5 24
737.5 7.5 24
775 7.5 24
762.5 7.5 24
800 7.5 24
787.5 7.5 24
825.0000000000001 7.5 24
812.5 7.5 24
850.0000000000001 7.5 24
837.5000000000001 7.5 24
875 7.5 24
862.5 7.5 24
900 7.5 24
887.5 7.5 24
925 7.5 24
912.5 7.5 24
950.0000000000001 7.5 24
937.5 7.5 24
975.0000000000001 7.5 24
962.5000000000001 7.5 24
987.5 7.5 24
3 1 0 711
1315
1316
1317
1318
1319
1320
1321
1322
1323
1324
1325
1326
1327
1328
1329
1330
1331
1332
1333
1334
1335
1336
1337
1338
1339
1340
1341
1342
1343
1344
1345
1346
1347
1348
1349
1350
1351
1352
1353
1354
1355
1356
1357
1358
1359
1360
1361
1362
1363
1364
1365
1366
1367
1368
1369
1370
1371
1372
1373
1374
1375
1376
1377
1378
1379
1380
1381
1382
1383
1384
1385
1386
1387
1388
1389
1390
1391
1392
1393
1394
1395
1396
1397
1398
1399
1400
1401
1402
1403
1404
1405
1406
1407
1408
1409
1410
1411
1412
1413
1414
1415
1416
1417
1418
1419
1420
1421
1422
1423
1424
1425
1426
1427
1428
1429
1430
1431
1432
1433
1434
1435
1436
1437
1438
1439
1440
1441
1442
1443
1444
1445
1446
1447
1448
1449
1450
1451
1452
1453
1454
1455
1456
1457
1458
1459
1460
1461
1462
1463
1464
1465
1466
1467
1468
1469
1470
1471
1472
1473
1474
1475
1476
1477
1478
1479
1480
1481
1482
1483
1484
1485
1486
1487
1488
1489
1490
1491
1492
1493
1494
1495
1496
1497
1498
1499
1500
1501
1502
1503
1504
1505
1506
1507
1508
1509
1510
1511
1512
1513
1514
1515
1516
1517
1518
1519
1520
1521
1522
1523
1524
1525
1526
1527
1528
1529
1530
1531
1532
1533
1534
1535
1536
1537
1538
1539
1540
1541
1542
1543
1544
1545
1546
1547
1548
1549
1550
1551
1552
1553
1554
1555
1556
1557
1558
1559
1560
1561
1562
1563
1564
1565
1566
1567
1568
1569
1570
1571
1572
1573
1574
1575
1576
1577
1578
1579
1580
1581
1582
1583
1584
1585
1586
1587
1588
1589
1590
1591
1592
1593
1594
1595
1596
1597
1598
1599
1600
1601
1602
1603
1604
1605
1606
1607
1608
1609
1610
1611
1612
1613
1614
1615
1616
1617
1618
1619
1620
1621
1622
1623
1624
1625
1626
1627
1628
1629
1630
1631
1632
1633
1634
1635
1636
1637
1638
1639
1640
1641
1642
1643
1644
1645
1646
1647
1648
1649
1650
1651
1652
1653
1654
1655
1656
1657
1658
1659
1660
1661
1662
1663
1664
1665
1666
1667
1668
1669
1670
1671
1672
1673
1674
1675
1676
1677
1678
1679
1680
1681
1682
1683
1684
1685
1686
1687
1688
1689
1690
1691
1692
1693
1694
1695
1696
1697
1698
1699
1700
1701
1702
1703
1704
1705
1706
1707
1708
1709
1710
1711
1712
1713
1714
1715
1716
1717
1718
1719
1720
1721
1722
1723
1724
1725
1726
1727
1728
1729
1730
1731
1732
1733
1734
1735
1736
1737
1738
1739
1740
1741
1742
1743
1744
1745
1746
1747
1748
1749
1750
1751
1752
1753
1754
1755
1756
1757
1758
1759
1760
1761
1762
1763
1764
1765
1766
1767
1768
1769
1770
1771
1772
1773
1774
1775
1776
1777
1778
1779
1780
1781
1782
1783
1784
1785
1786
1787
1788
1789
1790
1791
1792
1793
1794
1795
1796
1797
1798
1799
1800
1801
1802
1803
1804
1805
1806
1807
1808
1809
1810
1811
1812
1813
1814
1815
1816
1817
1818
1819
1820
1821
1822
1823
1824
1825
1826
1827
1828
1829
1830
1831
1832
1833
1834
1835
1836
1837
1838
1839
1840
1841
1842
1843
1844
1845
1846
1847
1848
1849
1850
1851
1852
1853
1854
1855
1856
1857
1858
1859
1860
1861
1862
1863
1864
1865
1866
1867
1868
1869
1870
1871
1872
1873
1874
1875
1876
1877
1878
1879
1880
1881
1882
1883
1884
1885
1886
1887
1888
1889
1890
1891
1892
1893
1894
1895
1896
1897
1898
1899
1900
1901
1902
1903
1904
1905
1906
1907
1908
1909
1910
1911
1912
1913
1914
1915
1916
1917
1918
1919
1920
1921
1922
1923
1924
1925
1926
1927
1928
1929
1930
1931
1932
1933
1934
1935
1936
1937
1938
1939
1940
1941
1942
1943
1944
1945
1946
1947
1948
1949
1950
1951
1952
1953
1954
1955
1956
1957
1958
1959
1960
1961
1962
1963
1964
1965
1966
1967
1968
1969
1970
1971
1972
1973
1974
1975
1976
1977
1978
1979
1980
1981
1982
1983
1984
1985
1986
1987
1988
1989
1990
1991
1992
1993
1994
1995
1996
1997
1998
1999
2000
2001
2002
2003
2004
2005
2006
2007
2008
2009
2010
2011
2012
2013
2014
2015
2016
2017
2018
2019
2020
2021
2022
2023
2024
2025
25 5 12
50 5 12
74.99999999999999 5 12
100 5 12
125 5 12
150 5 12
175.0000000000001 5 12
200 5 12
225 5 12
250 5 12
275 5 12
299.9999999999999 5 12
325 5 12
350.0000000000002 5 12
375 5 12
400 5 12
425.0000000000002 5 12
450 5 12
475.0000000000002 5 12
500 5 12
525 5 12
550 5 12
574.9999999999999 5 12
599.9999999999999 5 12
625 5 12
650 5 12
675 5 12
700.0000000000003 5 12
725.0000000000003 5 12
750 5 12
775 5 12
800 5 12
825.0000000000003 5 12
850.0000000000003 5 12
875 5 12
900 5 12
925 5 12
950.0000000000003 5 12
975.0000000000003 5 12
12.5 5 12
25 2.5 12
25 5 6
12.5 2.5 12
12.5 5 6
25 2.5 6
12.5 2.5 6
37.5 5 12
50 2.5 12
50 5 6.000000000000001
37.5 2.5 12
37.5 5 6
50 2.5 6
37.5 2.5 6
62.49999999999999 5 12
75 2.5 12
75 5 5.999999999999999
62.5 2.5 12
62.5 5 6
75.00000000000001 2.5 6
62.50000000000001 2.5 6
87.5 5 12
100 2.5 12
100 5 6
87.5 2.5 12
87.5 5 6
100 2.5 6
87.50000000000001 2.5 6
112.5 5 12
125 2.5 12
125 5 6
112.5 2.5 12
112.5 5 6
125 2.5 6
112.5 2.5 6
137.5 5 12
150 2.5 12
150 5 6
137.5 2.5 12
137.5 5 6
150 2.5 6
137.5 2.5 6
162.5 5 12
175.0000000000001 2.5 12
175.0000000000001 5 6.000000000000001
162.5 2.5 12
162.5 5 6
175.0000000000001 2.5 6
162.5000000000001 2.5 6
187.5000000000001 5 12
200 2.5 12
200 5 5.999999999999999
187.5 2.5 12
187.5 5 6
200 2.5 6
187.5 2.5 6
212.5 5 12
225 2.5 12
225 5 6
212.5 2.5 12
212.5 5 6
225 2.5 6
212.5 2.5 6
237.5 5 12
250 2.5 12
250 5 6
237.5 2.5 12
237.5 5 6
250 2.5 6
237.5 2.5 6
262.5 5 12
275 2.5 12
275 5 6
262.5 2.5 12
262.5 5 6
275 2.5 6
262.5 2.5 6
287.5 5 12
300 2.5 12
300 5 6
287.5 2.5 12
287.5 5 6
300.0000000000001 2.5 6
287.5 2.5 6
312.5 5 12
325 2.5 12
325 5 5.999999999999999
312.5 2.5 12
312.5 5 6
325 2.5 6
312.5 2.5 6
337.5000000000001 5 12
350.0000000000001 2.5 12
350.0000000000001 5 6
337.5000000000001 2.5 12
337.5000000000001 5 6
350.0000000000001 2.5 6
337.5000000000001 2.5 6
362.5000000000001 5 12
375 2.5 12
375 5 6
362.5000000000001 2.5 12
362.5000000000001 5 6
375 2.5 6
362.5 2.5 6
387.5 5 12
400 2.5 12
400 5 6
387.5 2.5 12
387.5 5 6
400 2.5 6
387.5 2.5 6
412.5000000000001 5 12
425.0000000000001 2.5 12
425.0000000000001 5 6
412.5000000000001 2.5 12
412.5000000000001 5 6
425.0000000000001 2.5 6
412.5000000000001 2.5 6
437.5000000000001 5 12
450 2.5 12
450 5 6
437.5000000000001 2.5 12
437.5000000000001 5 6
450 2.5 6
437.5 2.5 6
462.5000000000001 5 12
475.0000000000001 2.5 12
475.0000000000001 5 6
462.5000000000001 2.5 12
462.5000000000001 5 6
475.0000000000001 2.5 6
462.5000000000001 2.5 6
487.5000000000001 5 12
500 2.5 12
500 5 6
487.5000000000001 2.5 12
487.5000000000001 5 6
500 2.5 6
487.5 2.5 6
512.5 5 12
525 2.5 12
525 5 6
512.5 2.5 12
512.5 5 6
525 2.5 6
512.5 2.5 6
537.5 5 12
550 2.5 12
550 5 6
537.5 2.5 12
537.5 5 6
550 2.5 6
537.5 2.5 6
562.5 5 12
575 2.5 12
575 5 6.000000000000001
562.5 2.5 12
562.5 5 6
575.0000000000001 2.5 6
562.5 2.5 6
587.4999999999999 5 12
600 2.5 12
600 5 6
587.5 2.5 12
587.5 5 6
600.0000000000001 2.5 6
587.5 2.5 6
612.5 5 12
625 2.5 12
625 5 6
612.5 2.5 12
612.5 5 6
625 2.5 6
612.5 2.5 6
637.5 5 12
650 2.5 12
650 5 6
637.5 2.5 12
637.5 5 6
650 2.5 6
637.5 2.5 6
662.5 5 12
675 2.5 12
675 5 6
662.5 2.5 12
662.5 5 6
675 2.5 6
662.5 2.5 6
687.5000000000002 5 12
700.0000000000002 2.5 12
700.0000000000002 5 6
687.5000000000001 2.5 12
687.5000000000001 5 6
700.0000000000002 2.5 6
687.5000000000002 2.5 6
712.5000000000003 5 12
725.0000000000002 2.5 12
725.0000000000002 5 6
712.5000000000002 2.5 12
712.5000000000002 5 6
725.0000000000002 2.5 6
712.5000000000005 2.5 6
737.5000000000002 5 12
750 2.5 12
750 5 6
737.5000000000001 2.5 12
737.5000000000001 5 6
750 2.5 6
737.5 2.5 6
762.5 5 12
775 2.5 12
775 5 6
762.5 2.5 12
762.5 5 6
775 2.5 6
762.5 2.5 6
787.5 5 12
800 2.5 12
800 5 6
787.5 2.5 12
787.5 5 6
800 2.5 6
787.5 2.5 6
812.5000000000002 5 12
825.0000000000002 2.5 12
825.0000000000002 5 6
812.5000000000001 2.5 12
812.5000000000001 5 6
825.0000000000002 2.5 6
812.5000000000002 2.5 6
837.5000000000003 5 12
850.0000000000002 2.5 12
850.0000000000002 5 6
837.5000000000002 2.5 12
837.5000000000002 5 6
850.0000000000002 2.5 6
837.5000000000005 2.5 6
862.5000000000002 5 12
875 2.5 12
875 5 6
862.5000000000001 2.5 12
862.5000000000001 5 6
875 2.5 6
862.5 2.5 6
887.5 5 12
900 2.5 12
900 5 6
887.5 2.5 12
887.5 5 6
900 2.5 6
887.5 2.5 6
912.5 5 12
925 2.5 12
925 5 6
912.5 2.5 12
912.5 5 6
925 2.5 6
912.5 2.5 6
937.5000000000002 5 12
950.0000000000002 2.5 12
950.0000000000002 5 6
937.5000000000001 2.5 12
937.5000000000001 5 6
950.0000000000002 2.5 6
937.5000000000002 2.5 6
962.5000000000003 5 12
975.0000000000002 2.5 12
975.0000000000002 5 6
962.5000000000002 2.5 12
962.5000000000002 5 6
975.0000000000002 2.5 6
962.5000000000005 2.5 6
987.5000000000002 5 12
987.5000000000001 2.5 12
987.5000000000001 5 6
987.5 2.5 6
25 7.5 12
12.5 7.5 12
25 7.5 6
12.5 7.5 6
50 7.5 12
37.5 7.5 12
50 7.5 6
37.5 7.5 6
75 7.5 12
62.5 7.5 12
75.00000000000001 7.5 6
62.50000000000002 7.5 6
100 7.5 12
87.5 7.5 12
100 7.5 6
87.50000000000001 7.5 6
125 7.5 12
112.5 7.5 12
125 7.5 6
112.5 7.5 6
150 7.5 12
137.5 7.5 12
150 7.5 6
137.5 7.5 6
175.0000000000001 7.5 12
162.5 7.5 12
175.0000000000001 7.5 6
162.5000000000001 7.5 6
200 7.5 12
187.5 7.5 12
200 7.5 6
187.5 7.5 6
225 7.5 12
212.5 7.5 12
225 7.5 6
212.5 7.5 6
250 7.5 12
237.5 7.5 12
250 7.5 6
237.5 7.5 6
275 7.5 12
262.5 7.5 12
275 7.5 6
262.5 7.5 6
300 7.5 12
287.5 7.5 12
300.0000000000001 7.5 6
287.5 7.5 6
325 7.5 12
312.5 7.5 12
325 7.5 6
312.5 7.5 6
350.0000000000001 7.5 12
337.5000000000001 7.5 12
350.0000000000001 7.5 6
337.5000000000001 7.5 6
375 7.5 12
362.5000000000001 7.5 12
375 7.5 6
362.5 7.5 6
400 7.5 12
387.5 7.5 12
400 7.5 6
387.5 7.5 6
425.0000000000001 7.5 12
412.5000000000001 7.5 12
425.0000000000001 7.5 6
412.5000000000001 7.5 6
450 7.5 12
437.5000000000001 7.5 12
450 7.5 6
437.5 7.5 6
475.0000000000001 7.5 12
462.5000000000001 7.5 12
475.0000000000001 7.5 6
462.5000000000001 7.5 6
500 7.5 12
487.5000000000001 7.5 12
500 7.5 6
487.5 7.5 6
525 7.5 12
512.5 7.5 12
525 7.5 6
512.5 7.5 6
550 7.5 12
537.5 7.5 12
550 7.5 6
537.5 7.5 6
575 7.5 12
562.5 7.5 12
575.0000000000001 7.5 6
562.5 7.5 6
600 7.5 12
587.5 7.5 12
600.0000000000001 7.5 6
587.5000000000002 7.5 6
625 7.5 12
612.5 7.5 12
625 7.5 6
612.5 7.5 6
650 7.5 12
637.5 7.5 12
650 7.5 6
637.5 7.5 6
675 7.5 12
662.5 7.5 12
675 7.5 6
662.5 7.5 6
700.0000000000002 7.5 12
687.5000000000001 7.5 12
700.0000000000002 7.5 6
687.5000000000002 7.5 6
725.0000000000002 7.5 12
712.5000000000002 7.5 12
725.0000000000002 7.5 6
712.5000000000005 7.5 6
750 7.5 12
737.5000000000001 7.5 12
750 7.5 6
737.5 7.5 6
775 7.5 12
762.5 7.5 12
775 7.5 6
762.5 7.5 6
800 7.5 12
787.5 7.5 12
800 7.5 6
787.5 7.5 6
825.0000000000002 7.5 12
812.5000000000001 7.5 12
825.0000000000002 7.5 6
812.5000000000002 7.5 6
850.0000000000002 7.5 12
837.5000000000002 7.5 12
850.0000000000002 7.5 6
837.5000000000005 7.5 6
875 7.5 12
862.5000000000001 7.5 12
875 7.5 6
862.5 7.5 6
900 7.5 12
887.5 7.5 12
900 7.5 6
887.5 7.5 6
925 7.5 12
912.5 7.5 12
925 7.5 6
912.5 7.5 6
950.0000000000002 7.5 12
937.5000000000001 7.5 12
950.0000000000002 7.5 6
937.5000000000002 7.5 6
975.0000000000002 7.5 12
962.5000000000002 7.5 12
975.0000000000002 7.5 6
962.5000000000005 7.5 6
987.5000000000001 7.5 12
987.5 7.5 6
25 5 18
12.5 5 18
25 2.5 18
12.5 2.5 18
50 5 18
37.5 5 18
50 2.5 18
37.5 2.5 18
75 5 18
62.5 5 18
75 2.5 18
62.5 2.5 18
100 5 18
87.5 5 18
100 2.5 18
87.5 2.5 18
125 5 18
112.5 5 18
125 2.5 18
112.5 2.5 18
150 5 18
137.5 5 18
150 2.5 18
137.5 2.5 18
175.0000000000001 5 18
162.5 5 18
175 2.5 18
162.5000000000001 2.5 18
200 5 18
187.5 5 18
200 2.5 18
187.5 2.5 18
225 5 18
212.5 5 18
225 2.5 18
212.5 2.5 18
250 5 18
237.5 5 18
250 2.5 18
237.5 2.5 18
275 5 18
262.5 5 18
275 2.5 18
262.5 2.5 18
300 5 18
287.5 5 18
300 2.5 18
287.5 2.5 18
325 5 18
312.5 5 18
325 2.5 18
312.5 2.5 18
350.0000000000001 5 18
337.5000000000001 5 18
350.0000000000001 2.5 18
337.5000000000001 2.5 18
375 5 18
362.5000000000001 5 18
375 2.5 18
362.5000000000001 2.5 18
400 5 18
387.5 5 18
400 2.5 18
387.5 2.5 18
425.0000000000001 5 18
412.5000000000001 5 18
425.0000000000001 2.5 18
412.5000000000001 2.5 18
450 5 18
437.5000000000001 5 18
450 2.5 18
437.5000000000001 2.5 18
475.0000000000001 5 18
462.5000000000001 5 18
475.0000000000001 2.5 18
462.5000000000001 2.5 18
500 5 18
487.5000000000001 5 18
500 2.5 18
487.5000000000001 2.5 18
525 5 18
512.5 5 18
525 2.5 18
512.5 2.5 18
550 5 18
537.5 5 18
550 2.5 18
537.5 2.5 18
575 5 18
562.5 5 18
575 2.5 18
562.5 2.5 18
600 5 18
587.5 5 18
600 2.5 18
587.5 2.5 18
625 5 18
612.5 5 18
625 2.5 18
612.5 2.5 18
650 5 18
637.5 5 18
650 2.5 18
637.5 2.5 18
675 5 18
662.5 5 18
675 2.5 18
662.5 2.5 18
700.0000000000002 5 18
687.5000000000001 5 18
700.0000000000001 2.5 18
687.5000000000002 2.5 18
725.0000000000002 5 18
712.5000000000002 5 18
725.0000000000001 2.5 18
712.5000000000001 2.5 18
750 5 18
737.5000000000001 5 18
750 2.5 18
737.5000000000001 2.5 18
775 5 18
762.5 5 18
775 2.5 18
762.5 2.5 18
800 5 18
787.5 5 18
800 2.5 18
787.5 2.5 18
825.0000000000002 5 18
812.5000000000001 5 18
825.0000000000001 2.5 18
812.5000000000002 2.5 18
850.0000000000002 5 18
837.5000000000002 5 18
850.0000000000001 2.5 18
837.5000000000001 2.5 18
875 5 18
862.5000000000001 5 18
875 2.5 18
862.5000000000001 2.5 18
900 5 18
887.5 5 18
900 2.5 18
887.5 2.5 18
925 5 18
912.5 5 18
925 2.5 18
912.5 2.5 18
950.0000000000002 5 18
937.5000000000001 5 18
950.0000000000001 2.5 18
937.5000000000002 2.5 18
975.0000000000002 5 18
962.5000000000002 5 18
975.0000000000001 2.5 18
962.5000000000001 2.5 18
987.5000000000001 5 18
987.5000000000001 2.5 18
25 7.5 18
12.5 7.5 18
50 7.5 18
37.5 7.5 18
75.00000000000001 7.5 18
62.50000000000001 7.5 18
100 7.5 18
87.5 7.5 18
125 7.5 18
112.5 7.5 18
150 7.5 18
137.5 7.5 18
175.0000000000001 7.5 18
162.5 7.5 18
200 7.5 18
187.5 7.5 18
225 7.5 18
212.5 7.5 18
250 7.5 18
237.5 7.5 18
275 7.5 18
262.5 7.5 18
300.0000000000001 7.5 18
287.5 7.5 18
325 7.5 18
312.5 7.5 18
350.0000000000001 7.5 18
337.5000000000001 7.5 18
375 7.5 18
362.5000000000001 7.5 18
400 7.5 18
387.5 7.5 18
425.0000000000001 7.5 18
412.5000000000001 7.5 18
450 7.5 18
437.5000000000001 7.5 18
475.0000000000001 7.5 18
462.5000000000001 7.5 18
500 7.5 18
487.5000000000001 7.5 18
525 7.5 18
512.5 7.5 18
550 7.5 18
537.5 7.5 18
575.0000000000001 7.5 18
562.5 7.5 18
600.0000000000001 7.5 18
587.5000000000001 7.5 18
625 7.5 18
612.5 7.5 18
650 7.5 18
637.5 7.5 18
675 7.5 18
662.5 7.5 18
700.0000000000002 7.5 18
687.5000000000002 7.5 18
725.0000000000002 7.5 18
712.5000000000005 7.5 18
750 7.5 18
737.5000000000001 7.5 18
775 7.5 18
762.5 7.5 18
800 7.5 18
787.5 7.5 18
825.0000000000002 7.5 18
812.5000000000002 7.5 18
850.0000000000002 7.5 18
837.5000000000005 7.5 18
875 7.5 18
862.5000000000001 7.5 18
900 7.5 18
887.5 7.5 18
925 7.5 18
912.5 7.5 18
950.0000000000002 7.5 18
937.5000000000002 7.5 18
975.0000000000002 7.5 18
962.5000000000005 7.5 18
987.5000000000001 7.5 18
$EndNodes
$Elements
7 488 1 488
2 1 10 4
1 2 9 349 18 10 350 351 19 352 
2 18 349 15 4 351 353 16 20 354 
3 9 1 12 349 11 13 355 350 356 
4 349 12 3 15 355 14 17 353 357 
2 2 10 4
5 6 30 358 21 31 359 360 22 361 
6 30 8 27 358 32 28 362 359 363 
7 21 358 24 5 360 364 25 23 365 
8 358 27 7 24 362 29 26 364 366 
2 3 10 80
9 2 33 367 9 72 406 407 10 408 
10 9 367 112 1 407 409 151 11 410 
11 33 34 368 367 73 411 412 406 413 
12 367 368 113 112 412 414 152 409 415 
13 34 35 369 368 74 416 417 411 418 
14 368 369 114 113 417 419 153 414 420 
15 35 36 370 369 75 421 422 416 423 
16 369 370 115 114 422 424 154 419 425 
17 36 37 371 370 76 426 427 421 428 
18 370 371 116 115 427 429 155 424 430 
19 37 38 372 371 77 431 432 426 433 
20 371 372 117 116 432 434 156 429 435 
21 38 39 373 372 78 436 437 431 438 
22 372 373 118 117 437 439 157 434 440 
23 39 40 374 373 79 441 442 436 443 
24 373 374 119 118 442 444 158 439 445 
25 40 41 375 374 80 446 447 441 448 
26 374 375 120 119 447 449 159 444 450 
27 41 42 376 375 81 451 452 446 453 
28 375 376 121 120 452 454 160 449 455 
29 42 43 377 376 82 456 457 451 458 
30 376 377 122 121 457 459 161 454 460 
31 43 44 378 377 83 461 462 456 463 
32 377 378 123 122 462 464 162 459 465 
33 44 45 379 378 84 466 467 461 468 
34 378 379 124 123 467 469 163 464 470 
35 45 46 380 379 85 471 472 466 473 
36 379 380 125 124 472 474 164 469 475 
37 46 47 381 380 86 476 477 471 478 
38 380 381 126 125 477 479 165 474 480 
39 47 48 382 381 87 481 482 476 483 
40 381 382 127 126 482 484 166 479 485 
41 48 49 383 382 88 486 487 481 488 
42 382 383 128 127 487 489 167 484 490 
43 49 50 384 383 89 491 492 486 493 
44 383 384 129 128 492 494 168 489 495 
45 50 51 385 384 90 496 497 491 498 
46 384 385 130 129 497 499 169 494 500 
47 51 52 386 385 91 501 502 496 503 
48 385 386 131 130 502 504 170 499 505 
49 52 53 387 386 92 506 507 501 508 
50 386 387 132 131 507 509 171 504 510 
51 53 54 388 387 93 511 512 506 513 
52 387 388 133 132 512 514 172 509 515 
53 54 55 389 388 94 516 517 511 518 
54 388 389 134 133 517 519 173 514 520 
55 55 56 390 389 95 521 522 516 523 
56 389 390 135 134 522 524 174 519 525 
57 56 57 391 390 96 526 527 521 528 
58 390 391 136 135 527 529 175 524 530 
59 57 58 392 391 97 531 532 526 533 
60 391 392 137 136 532 534 176 529 535 
61 58 59 393 392 98 536 537 531 538 
62 392 393 138 137 537 539 177 534 540 
63 59 60 394 393 99 541 542 536 543 
64 393 394 139 138 542 544 178 539 545 
65 60 61 395 394 100 546 547 541 548 
66 394 395 140 139 547 549 179 544 550 
67 61 62 396 395 101 551 552 546 553 
68 395 396 141 140 552 554 180 549 555 
69 62 63 397 396 102 556 557 551 558 
70 396 397 142 141 557 559 181 554 560 
71 63 64 398 397 103 561 562 556 563 
72 397 398 143 142 562 564 182 559 565 
73 64 65 399 398 104 566 567 561 568 
74 398 399 144 143 567 569 183 564 570 
75 65 66 400 399 105 571 572 566 573 
76 399 400 145 144 572 574 184 569 575 
77 66 67 401 400 106 576 577 571 578 
78 400 401 146 145 577 579 185 574 580 
79 67 68 402 401 107 581 582 576 583 
80 401 402 147 146 582 584 186 579 585 
81 68 69 403 402 108 586 587 581 588 
82 402 403 148 147 587 589 187 584 590 
83 69 70 404 403 109 591 592 586 593 
84 403 404 149 148 592 594 188 589 595 
85 70 71 405 404 110 596 597 591 598 
86 404 405 150 149 597 599 189 594 600 
87 71 6 21 405 111 22 601 596 602 
88 405 21 5 150 601 23 190 599 603 
2 4 10 80
89 4 15 604 191 16 643 644 230 645 
90 15 3 270 604 17 309 646 643 647 
91 191 604 605 192 644 648 649 231 650 
92 604 270 271 605 646 310 651 648 652 
93 192 605 606 193 649 653 654 232 655 
94 605 271 272 606 651 311 656 653 657 
95 193 606 607 194 654 658 659 233 660 
96 606 272 273 607 656 312 661 658 662 
97 194 607 608 195 659 663 664 234 665 
98 607 273 274 608 661 313 666 663 667 
99 195 608 609 196 664 668 669 235 670 
100 608 274 275 609 666 314 671 668 672 
101 196 609 610 197 669 673 674 236 675 
102 609 275 276 610 671 315 676 673 677 
103 197 610 611 198 674 678 679 237 680 
104 610 276 277 611 676 316 681 678 682 
105 198 611 612 199 679 683 684 238 685 
106 611 277 278 612 681 317 686 683 687 
107 199 612 613 200 684 688 689 239 690 
108 612 278 279 613 686 318 691 688 692 
109 200 613 614 201 689 693 694 240 695 
110 613 279 280 614 691 319 696 693 697 
111 201 614 615 202 694 698 699 241 700 
112 614 280 281 615 696 320 701 698 702 
113 202 615 616 203 699 703 704 242 705 
114 615 281 282 616 701 321 706 703 707 
115 203 616 617 204 704 708 709 243 710 
116 616 282 283 617 706 322 711 708 712 
117 204 617 618 205 709 713 714 244 715 
118 617 283 284 618 711 323 716 713 717 
119 205 618 619 206 714 718 719 245 720 
120 618 284 285 619 716 324 721 718 722 
121 206 619 620 207 719 723 724 246 725 
122 619 285 286 620 721 325 726 723 727 
123 207 620 621 208 724 728 729 247 730 
124 620 286 287 621 726 326 731 728 732 
125 208 621 622 209 729 733 734 248 735 
126 621 287 288 622 731 327 736 733 737 
127 209 622 623 210 734 738 739 249 740 
128 622 288 289 623 736 328 741 738 742 
129 210 623 624 211 739 743 744 250 745 
130 623 289 290 624 741 329 746 743 747 
131 211 624 625 212 744 748 749 251 750 
132 624 290 291 625 746 330 751 748 752 
133 212 625 626 213 749 753 754 252 755 
134 625 291 292 626 751 331 756 753 757 
135 213 626 627 214 754 758 759 253 760 
136 626 292 293 627 756 332 761 758 762 
137 214 627 628 215 759 763 764 254 765 
138 627 293 294 628 761 333 766 763 767 
139 215 628 629 216 764 768 769 255 770 
140 628 294 295 629 766 334 771 768 772 
141 216 629 630 217 769 773 774 256 775 
142 629 295 296 630 771 335 776 773 777 
143 217 630 631 218 774 778 779 257 780 
144 630 296 297 631 776 336 781 778 782 
145 218 631 632 219 779 783 784 258 785 
146 631 297 298 632 781 337 786 783 787 
147 219 632 633 220 784 788 789 259 790 
148 632 298 299 633 786 338 791 788 792 
149 220 633 634 221 789 793 794 260 795 
150 633 299 300 634 791 339 796 793 797 
151 221 634 635 222 794 798 799 261 800 
152 634 300 301 635 796 340 801 798 802 
153 222 635 636 223 799 803 804 262 805 
154 635 301 302 636 801 341 806 803 807 
155 223 636 637 224 804 808 809 263 810 
156 636 302 303 637 806 342 811 808 812 
157 224 637 638 225 809 813 814 264 815 
158 637 303 304 638 811 343 816 813 817 
159 225 638 639 226 814 818 819 265 820 
160 638 304 305 639 816 344 821 818 822 
161 226 639 640 227 819 823 824 266 825 
162 639 305 306 640 821 345 826 823 827 
163 227 640 641 228 824 828 829 267 830 
164 640 306 307 641 826 346 831 828 832 
165 228 641 642 229 829 833 834 268 835 
166 641 307 308 642 831 347 836 833 837 
167 229 642 27 8 834 838 28 269 839 
168 642 308 7 27 836 348 29 838 840 
2 5 10 80
169 2 18 841 33 19 880 881 72 882 
170 33 841 842 34 881 883 884 73 885 
171 34 842 843 35 884 886 887 74 888 
172 35 843 844 36 887 889 890 75 891 
173 36 844 845 37 890 892 893 76 894 
174 37 845 846 38 893 895 896 77 897 
175 38 846 847 39 896 898 899 78 900 
176 39 847 848 40 899 901 902 79 903 
177 40 848 849 41 902 904 905 80 906 
178 41 849 850 42 905 907 908 81 909 
179 42 850 851 43 908 910 911 82 912 
180 43 851 852 44 911 913 914 83 915 
181 44 852 853 45 914 916 917 84 918 
182 45 853 854 46 917 919 920 85 921 
183 46 854 855 47 920 922 923 86 924 
184 47 855 856 48 923 925 926 87 927 
185 48 856 857 49 926 928 929 88 930 
186 49 857 858 50 929 931 932 89 933 
187 50 858 859 51 932 934 935 90 936 
188 51 859 860 52 935 937 938 91 939 
189 52 860 861 53 938 940 941 92 942 
190 53 861 862 54 941 943 944 93 945 
191 54 862 863 55 944 946 947 94 948 
192 55 863 864 56 947 949 950 95 951 
193 56 864 865 57 950 952 953 96 954 
194 57 865 866 58 953 955 956 97 957 
195 58 866 867 59 956 958 959 98 960 
196 59 867 868 60 959 961 962 99 963 
197 60 868 869 61 962 964 965 100 966 
198 61 869 870 62 965 967 968 101 969 
199 62 870 871 63 968 970 971 102 972 
200 63 871 872 64 971 973 974 103 975 
201 64 872 873 65 974 976 977 104 978 
202 65 873 874 66 977 979 980 105 981 
203 66 874 875 67 980 982 983 106 984 
204 67 875 876 68 983 985 986 107 987 
205 68 876 877 69 986 988 989 108 990 
206 69 877 878 70 989 991 992 109 993 
207 70 878 879 71 992 994 995 110 996 
208 71 879 30 6 995 997 31 111 998 
209 18 4 191 841 20 230 999 880 1000 
210 841 191 192 842 999 231 1001 883 1002 
211 842 192 193 843 1001 232 1003 886 1004 
212 843 193 194 844 1003 233 1005 889 1006 
213 844 194 195 845 1005 234 1007 892 1008 
214 845 195 196 846 1007 235 1009 895 1010 
215 846 196 197 847 1009 236 1011 898 1012 
216 847 197 198 848 1011 237 1013 901 1014 
217 848 198 199 849 1013 238 1015 904 1016 
218 849 199 200 850 1015 239 1017 907 1018 
219 850 200 201 851 1017 240 1019 910 1020 
220 851 201 202 852 1019 241 1021 913 1022 
221 852 202 203 853 1021 242 1023 916 1024 
222 853 203 204 854 1023 243 1025 919 1026 
223 854 204 205 855 1025 244 1027 922 1028 
224 855 205 206 856 1027 245 1029 925 1030 
225 856 206 207 857 1029 246 1031 928 1032 
226 857 207 208 858 1031 247 1033 931 1034 
227 858 208 209 859 1033 248 1035 934 1036 
228 859 209 210 860 1035 249 1037 937 1038 
229 860 210 211 861 1037 250 1039 940 1040 
230 861 211 212 862 1039 251 1041 943 1042 
231 862 212 213 863 1041 252 1043 946 1044 
232 863 213 214 864 1043 253 1045 949 1046 
233 864 214 215 865 1045 254 1047 952 1048 
234 865 215 216 866 1047 255 1049 955 1050 
235 866 216 217 867 1049 256 1051 958 1052 
236 867 217 218 868 1051 257 1053 961 1054 
237 868 218 219 869 1053 258 1055 964 1056 
238 869 219 220 870 1055 259 1057 967 1058 
239 870 220 221 871 1057 260 1059 970 1060 
240 871 221 222 872 1059 261 1061 973 1062 
241 872 222 223 873 1061 262 1063 976 1064 
242 873 223 224 874 1063 263 1065 979 1066 
243 874 224 225 875 1065 264 1067 982 1068 
244 875 225 226 876 1067 265 1069 985 1070 
245 876 226 227 877 1069 266 1071 988 1072 
246 877 227 228 878 1071 267 1073 991 1074 
247 878 228 229 879 1073 268 1075 994 1076 
248 879 229 8 30 1075 269 32 997 1077 
2 6 10 80
249 1 112 1078 12 151 1117 1118 13 1119 
250 112 113 1079 1078 152 1120 1121 1117 1122 
251 113 114 1080 1079 153 1123 1124 1120 1125 
252 114 115 1081 1080 154 1126 1127 1123 1128 
253 115 116 1082 1081 155 1129 1130 1126 1131 
254 116 117 1083 1082 156 1132 1133 1129 1134 
255 117 118 1084 1083 157 1135 1136 1132 1137 
256 118 119 1085 1084 158 1138 1139 1135 1140 
257 119 120 1086 1085 159 1141 1142 1138 1143 
258 120 121 1087 1086 160 1144 1145 1141 1146 
259 121 122 1088 1087 161 1147 1148 1144 1149 
260 122 123 1089 1088 162 1150 1151 1147 1152 
261 123 124 1090 1089 163 1153 1154 1150 1155 
262 124 125 1091 1090 164 1156 1157 1153 1158 
263 125 126 1092 1091 165 1159 1160 1156 1161 
264 126 127 1093 1092 166 1162 1163 1159 1164 
265 127 128 1094 1093 167 1165 1166 1162 1167 
266 128 129 1095 1094 168 1168 1169 1165 1170 
267 129 130 1096 1095 169 1171 1172 1168 1173 
268 130 131 1097 1096 170 1174 1175 1171 1176 
269 131 132 1098 1097 171 1177 1178 1174 1179 
270 132 133 1099 1098 172 1180 1181 1177 1182 
271 133 134 1100 1099 173 1183 1184 1180 1185 
272 134 135 1101 1100 174 1186 1187 1183 1188 
273 135 136 1102 1101 175 1189 1190 1186 1191 
274 136 137 1103 1102 176 1192 1193 1189 1194 
275 137 138 1104 1103 177 1195 1196 1192 1197 
276 138 139 1105 1104 178 1198 1199 1195 1200 
277 139 140 1106 1105 179 1201 1202 1198 1203 
278 140 141 1107 1106 180 1204 1205 1201 1206 
279 141 142 1108 1107 181 1207 1208 1204 1209 
280 142 143 1109 1108 182 1210 1211 1207 1212 
281 143 144 1110 1109 183 1213 1214 1210 1215 
282 144 145 1111 1110 184 1216 1217 1213 1218 
283 145 146 1112 1111 185 1219 1220 1216 1221 
284 146 147 1113 1112 186 1222 1223 1219 1224 
285 147 148 1114 1113 187 1225 1226 1222 1227 
286 148 149 1115 1114 188 1228 1229 1225 1230 
287 149 150 1116 1115 189 1231 1232 1228 1233 
288 150 5 24 1116 190 25 1234 1231 1235 
289 12 1078 270 3 1118 1236 309 14 1237 
290 1078 1079 271 270 1121 1238 310 1236 1239 
291 1079 1080 272 271 1124 1240 311 1238 1241 
292 1080 1081 273 272 1127 1242 312 1240 1243 
293 1081 1082 274 273 1130 1244 313 1242 1245 
294 1082 1083 275 274 1133 1246 314 1244 1247 
295 1083 1084 276 275 1136 1248 315 1246 1249 
296 1084 1085 277 276 1139 1250 316 1248 1251 
297 1085 1086 278 277 1142 1252 317 1250 1253 
298 1086 1087 279 278 1145 1254 318 1252 1255 
299 1087 1088 280 279 1148 1256 319 1254 1257 
300 1088 1089 281 280 1151 1258 320 1256 1259 
301 1089 1090 282 281 1154 1260 321 1258 1261 
302 1090 1091 283 282 1157 1262 322 1260 1263 
303 1091 1092 284 283 1160 1264 323 1262 1265 
304 1092 1093 285 284 1163 1266 324 1264 1267 
305 1093 1094 286 285 1166 1268 325 1266 1269 
306 1094 1095 287 286 1169 1270 326 1268 1271 
307 1095 1096 288 287 1172 1272 327 1270 1273 
308 1096 1097 289 288 1175 1274 328 1272 1275 
309 1097 1098 290 289 1178 1276 329 1274 1277 
310 1098 1099 291 290 1181 1278 330 1276 1279 
311 1099 1100 292 291 1184 1280 331 1278 1281 
312 1100 1101 293 292 1187 1282 332 1280 1283 
313 1101 1102 294 293 1190 1284 333 1282 1285 
314 1102 1103 295 294 1193 1286 334 1284 1287 
315 1103 1104 296 295 1196 1288 335 1286 1289 
316 1104 1105 297 296 1199 1290 336 1288 1291 
317 1105 1106 298 297 1202 1292 337 1290 1293 
318 1106 1107 299 298 1205 1294 338 1292 1295 
319 1107 1108 300 299 1208 1296 339 1294 1297 
320 1108 1109 301 300 1211 1298 340 1296 1299 
321 1109 1110 302 301 1214 1300 341 1298 1301 
322 1110 1111 303 302 1217 1302 342 1300 1303 
323 1111 1112 304 303 1220 1304 343 1302 1305 
324 1112 1113 305 304 1223 1306 344 1304 1307 
325 1113 1114 306 305 1226 1308 345 1306 1309 
326 1114 1115 307 306 1229 1310 346 1308 1311 
327 1115 1116 308 307 1232 1312 347 1310 1313 
328 1116 24 7 308 1234 26 348 1312 1314 
3 1 12 160
329 349 9 2 18 1315 367 33 841 350 351 1354 10 407 19 72 880 1355 1356 406 881 352 1357 1358 408 882 1359 1360 
330 1315 367 33 841 1316 368 34 842 1355 1356 1361 406 412 881 73 883 1362 1363 411 884 1359 1364 1365 413 885 1366 1367 
331 1316 368 34 842 1317 369 35 843 1362 1363 1368 411 417 884 74 886 1369 1370 416 887 1366 1371 1372 418 888 1373 1374 
332 1317 369 35 843 1318 370 36 844 1369 1370 1375 416 422 887 75 889 1376 1377 421 890 1373 1378 1379 423 891 1380 1381 
333 1318 370 36 844 1319 371 37 845 1376 1377 1382 421 427 890 76 892 1383 1384 426 893 1380 1385 1386 428 894 1387 1388 
334 1319 371 37 845 1320 372 38 846 1383 1384 1389 426 432 893 77 895 1390 1391 431 896 1387 1392 1393 433 897 1394 1395 
335 1320 372 38 846 1321 373 39 847 1390 1391 1396 431 437 896 78 898 1397 1398 436 899 1394 1399 1400 438 900 1401 1402 
336 1321 373 39 847 1322 374 40 848 1397 1398 1403 436 442 899 79 901 1404 1405 441 902 1401 1406 1407 443 903 1408 1409 
337 1322 374 40 848 1323 375 41 849 1404 1405 1410 441 447 902 80 904 1411 1412 446 905 1408 1413 1414 448 906 1415 1416 
338 1323 375 41 849 1324 376 42 850 1411 1412 1417 446 452 905 81 907 1418 1419 451 908 1415 1420 1421 453 909 1422 1423 
339 1324 376 42 850 1325 377 43 851 1418 1419 1424 451 457 908 82 910 1425 1426 456 911 1422 1427 1428 458 912 1429 1430 
340 1325 377 43 851 1326 378 44 852 1425 1426 1431 456 462 911 83 913 1432 1433 461 914 1429 1434 1435 463 915 1436 1437 
341 1326 378 44 852 1327 379 45 853 1432 1433 1438 461 467 914 84 916 1439 1440 466 917 1436 1441 1442 468 918 1443 1444 
342 1327 379 45 853 1328 380 46 854 1439 1440 1445 466 472 917 85 919 1446 1447 471 920 1443 1448 1449 473 921 1450 1451 
343 1328 380 46 854 1329 381 47 855 1446 1447 1452 471 477 920 86 922 1453 1454 476 923 1450 1455 1456 478 924 1457 1458 
344 1329 381 47 855 1330 382 48 856 1453 1454 1459 476 482 923 87 925 1460 1461 481 926 1457 1462 1463 483 927 1464 1465 
345 1330 382 48 856 1331 383 49 857 1460 1461 1466 481 487 926 88 928 1467 1468 486 929 1464 1469 1470 488 930 1471 1472 
346 1331 383 49 857 1332 384 50 858 1467 1468 1473 486 492 929 89 931 1474 1475 491 932 1471 1476 1477 493 933 1478 1479 
347 1332 384 50 858 1333 385 51 859 1474 1475 1480 491 497 932 90 934 1481 1482 496 935 1478 1483 1484 498 936 1485 1486 
348 1333 385 51 859 1334 386 52 860 1481 1482 1487 496 502 935 91 937 1488 1489 501 938 1485 1490 1491 503 939 1492 1493 
349 1334 386 52 860 1335 387 53 861 1488 1489 1494 501 507 938 92 940 1495 1496 506 941 1492 1497 1498 508 942 1499 1500 
350 1335 387 53 861 1336 388 54 862 1495 1496 1501 506 512 941 93 943 1502 1503 511 944 1499 1504 1505 513 945 1506 1507 
351 1336 388 54 862 1337 389 55 863 1502 1503 1508 511 517 944 94 946 1509 1510 516 947 1506 1511 1512 518 948 1513 1514 
352 1337 389 55 863 1338 390 56 864 1509 1510 1515 516 522 947 95 949 1516 1517 521 950 1513 1518 1519 523 951 1520 1521 
353 1338 390 56 864 1339 391 57 865 1516 1517 1522 521 527 950 96 952 1523 1524 526 953 1520 1525 1526 528 954 1527 1528 
354 1339 391 57 865 1340 392 58 866 1523 1524 1529 526 532 953 97 955 1530 1531 531 956 1527 1532 1533 533 957 1534 1535 
355 1340 392 58 866 1341 393 59 867 1530 1531 1536 531 537 956 98 958 1537 1538 536 959 1534 1539 1540 538 960 1541 1542 
356 1341 393 59 867 1342 394 60 868 1537 1538 1543 536 542 959 99 961 1544 1545 541 962 1541 1546 1547 543 963 1548 1549 
357 1342 394 60 868 1343 395 61 869 1544 1545 1550 541 547 962 100 964 1551 1552 546 965 1548 1553 1554 548 966 1555 1556 
358 1343 395 61 869 1344 396 62 870 1551 1552 1557 546 552 965 101 967 1558 1559 551 968 1555 1560 1561 553 969 1562 1563 
359 1344 396 62 870 1345 397 63 871 1558 1559 1564 551 557 968 102 970 1565 1566 556 971 1562 1567 1568 558 972 1569 1570 
360 1345 397 63 871 1346 398 64 872 1565 1566 1571 556 562 971 103 973 1572 1573 561 974 1569 1574 1575 563 975 1576 1577 
361 1346 398 64 872 1347 399 65 873 1572 1573 1578 561 567 974 104 976 1579 1580 566 977 1576 1581 1582 568 978 1583 1584 
362 1347 399 65 873 1348 400 66 874 1579 1580 1585 566 572 977 105 979 1586 1587 571 980 1583 1588 1589 573 981 1590 1591 
363 1348 400 66 874 1349 401 67 875 1586 1587 1592 571 577 980 106 982 1593 1594 576 983 1590 1595 1596 578 984 1597 1598 
364 1349 401 67 875 1350 402 68 876 1593 1594 1599 576 582 983 107 985 1600 1601 581 986 1597 1602 1603 583 987 1604 1605 
365 1350 402 68 876 1351 403 69 877 1600 1601 1606 581 587 986 108 988 1607 1608 586 989 1604 1609 1610 588 990 1611 1612 
366 1351 403 69 877 1352 404 70 878 1607 1608 1613 586 592 989 109 991 1614 1615 591 992 1611 1616 1617 593 993 1618 1619 
367 1352 404 70 878 1353 405 71 879 1614 1615 1620 591 597 992 110 994 1621 1622 596 995 1618 1623 1624 598 996 1625 1626 
368 1353 405 71 879 358 21 6 30 1621 1622 1627 596 601 995 111 997 360 359 22 31 1625 1628 1629 602 998 361 1630 
369 15 349 18 4 604 1315 841 191 353 16 643 351 1354 20 880 230 1631 644 1356 999 354 1632 645 1358 1000 1633 1634 
370 604 1315 841 191 605 1316 842 192 1631 644 648 1356 1361 999 883 231 1635 649 1363 1001 1633 1636 650 1365 1002 1637 1638 
371 605 1316 842 192 606 1317 843 193 1635 649 653 1363 1368 1001 886 232 1639 654 1370 1003 1637 1640 655 1372 1004 1641 1642 
372 606 1317 843 193 607 1318 844 194 1639 654 658 1370 1375 1003 889 233 1643 659 1377 1005 1641 1644 660 1379 1006 1645 1646 
373 607 1318 844 194 608 1319 845 195 1643 659 663 1377 1382 1005 892 234 1647 664 1384 1007 1645 1648 665 1386 1008 1649 1650 
374 608 1319 845 195 609 1320 846 196 1647 664 668 1384 1389 1007 895 235 1651 669 1391 1009 1649 1652 670 1393 1010 1653 1654 
375 609 1320 846 196 610 1321 847 197 1651 669 673 1391 1396 1009 898 236 1655 674 1398 1011 1653 1656 675 1400 1012 1657 1658 
376 610 1321 847 197 611 1322 848 198 1655 674 678 1398 1403 1011 901 237 1659 679 1405 1013 1657 1660 680 1407 1014 1661 1662 
377 611 1322 848 198 612 1323 849 199 1659 679 683 1405 1410 1013 904 238 1663 684 1412 1015 1661 1664 685 1414 1016 1665 1666 
378 612 1323 849 199 613 1324 850 200 1663 684 688 1412 1417 1015 907 239 1667 689 1419 1017 1665 1668 690 1421 1018 1669 1670 
379 613 1324 850 200 614 1325 851 201 1667 689 693 1419 1424 1017 910 240 1671 694 1426 1019 1669 1672 695 1428 1020 1673 1674 
380 614 1325 851 201 615 1326 852 202 1671 694 698 1426 1431 1019 913 241 1675 699 1433 1021 1673 1676 700 1435 1022 1677 1678 
381 615 1326 852 202 616 1327 853 203 1675 699 703 1433 1438 1021 916 242 1679 704 1440 1023 1677 1680 705 1442 1024 1681 1682 
382 616 1327 853 203 617 1328 854 204 1679 704 708 1440 1445 1023 919 243 1683 709 1447 1025 1681 1684 710 1449 1026 1685 1686 
383 617 1328 854 204 618 1329 855 205 1683 709 713 1447 1452 1025 922 244 1687 714 1454 1027 1685 1688 715 1456 1028 1689 1690 
384 618 1329 855 205 619 1330 856 206 1687 714 718 1454 1459 1027 925 245 1691 719 1461 1029 1689 1692 720 1463 1030 1693 1694 
385 619 1330 856 206 620 1331 857 207 1691 719 723 1461 1466 1029 928 246 1695 724 1468 1031 1693 1696 725 1470 1032 1697 1698 
386 620 1331 857 207 621 1332 858 208 1695 724 728 1468 1473 1031 931 247 1699 729 1475 1033 1697 1700 730 1477 1034 1701 1702 
387 621 1332 858 208 622 1333 859 209 1699 729 733 1475 1480 1033 934 248 1703 734 1482 1035 1701 1704 735 1484 1036 1705 1706 
388 622 1333 859 209 623 1334 860 210 1703 734 738 1482 1487 1035 937 249 1707 739 1489 1037 1705 1708 740 1491 1038 1709 1710 
389 623 1334 860 210 624 1335 861 211 1707 739 743 1489 1494 1037 940 250 1711 744 1496 1039 1709 1712 745 1498 1040 1713 1714 
390 624 1335 861 211 625 1336 862 212 1711 744 748 1496 1501 1039 943 251 1715 749 1503 1041 1713 1716 750 1505 1042 1717 1718 
391 625 1336 862 212 626 1337 863 213 1715 749 753 1503 1508 1041 946 252 1719 754 1510 1043 1717 1720 755 1512 1044 1721 1722 
392 626 1337 863 213 627 1338 864 214 1719 754 758 1510 1515 1043 949 253 1723 759 1517 1045 1721 1724 760 1519 1046 1725 1726 
393 627 1338 864 214 628 1339 865 215 1723 759 763 1517 1522 1045 952 254 1727 764 1524 1047 1725 1728 765 1526 1048 1729 1730 
394 628 1339 865 215 629 1340 866 216 1727 764 768 1524 1529 1047 955 255 1731 769 1531 1049 1729 1732 770 1533 1050 1733 1734 
395 629 1340 866 216 630 1341 867 217 1731 769 773 1531 1536 1049 958 256 1735 774 1538 1051 1733 1736 775 1540 1052 1737 1738 
396 630 1341 867 217 631 1342 868 218 1735 774 778 1538 1543 1051 961 257 1739 779 1545 1053 1737 1740 780 1547 1054 1741 1742 
397 631 1342 868 218 632 1343 869 219 1739 779 783 1545 1550 1053 964 258 1743 784 1552 1055 1741 1744 785 1554 1056 1745 1746 
398 632 1343 869 219 633 1344 870 220 1743 784 788 1552 1557 1055 967 259 1747 789 1559 1057 1745 1748 790 1561 1058 1749 1750 
399 633 1344 870 220 634 1345 871 221 1747 789 793 1559 1564 1057 970 260 1751 794 1566 1059 1749 1752 795 1568 1060 1753 1754 
400 634 1345 871 221 635 1346 872 222 1751 794 798 1566 1571 1059 973 261 1755 799 1573 1061 1753 1756 800 1575 1062 1757 1758 
401 635 1346 872 222 636 1347 873 223 1755 799 803 1573 1578 1061 976 262 1759 804 1580 1063 1757 1760 805 1582 1064 1761 1762 
402 636 1347 873 223 637 1348 874 224 1759 804 808 1580 1585 1063 979 263 1763 809 1587 1065 1761 1764 810 1589 1066 1765 1766 
403 637 1348 874 224 638 1349 875 225 1763 809 813 1587 1592 1065 982 264 1767 814 1594 1067 1765 1768 815 1596 1068 1769 1770 
404 638 1349 875 225 639 1350 876 226 1767 814 818 1594 1599 1067 985 265 1771 819 1601 1069 1769 1772 820 1603 1070 1773 1774 
405 639 1350 876 226 640 1351 877 227 1771 819 823 1601 1606 1069 988 266 1775 824 1608 1071 1773 1776 825 1610 1072 1777 1778 
406 640 1351 877 227 641 1352 878 228 1775 824 828 1608 1613 1071 991 267 1779 829 1615 1073 1777 1780 830 1617 1074 1781 1782 
407 641 1352 878 228 642 1353 879 229 1779 829 833 1615 1620 1073 994 268 1783 834 1622 1075 1781 1784 835 1624 1076 1785 1786 
408 642 1353 879 229 27 358 30 8 1783 834 838 1622 1627 1075 997 269 362 28 359 32 1785 1787 839 1629 1077 363 1788 
409 12 1 9 349 1078 112 367 1315 13 355 1118 11 151 350 407 1354 1117 1789 409 1355 356 1119 1790 410 1357 1791 1792 
410 1078 112 367 1315 1079 113 368 1316 1117 1789 1121 409 152 1355 412 1361 1120 1793 414 1362 1791 1122 1794 415 1364 1795 1796 
411 1079 113 368 1316 1080 114 369 1317 1120 1793 1124 414 153 1362 417 1368 1123 1797 419 1369 1795 1125 1798 420 1371 1799 1800 
412 1080 114 369 1317 1081 115 370 1318 1123 1797 1127 419 154 1369 422 1375 1126 1801 424 1376 1799 1128 1802 425 1378 1803 1804 
413 1081 115 370 1318 1082 116 371 1319 1126 1801 1130 424 155 1376 427 1382 1129 1805 429 1383 1803 1131 1806 430 1385 1807 1808 
414 1082 116 371 1319 1083 117 372 1320 1129 1805 1133 429 156 1383 432 1389 1132 1809 434 1390 1807 1134 1810 435 1392 1811 1812 
415 1083 117 372 1320 1084 118 373 1321 1132 1809 1136 434 157 1390 437 1396 1135 1813 439 1397 1811 1137 1814 440 1399 1815 1816 
416 1084 118 373 1321 1085 119 374 1322 1135 1813 1139 439 158 1397 442 1403 1138 1817 444 1404 1815 1140 1818 445 1406 1819 1820 
417 1085 119 374 1322 1086 120 375 1323 1138 1817 1142 444 159 1404 447 1410 1141 1821 449 1411 1819 1143 1822 450 1413 1823 1824 
418 1086 120 375 1323 1087 121 376 1324 1141 1821 1145 449 160 1411 452 1417 1144 1825 454 1418 1823 1146 1826 455 1420 1827 1828 
419 1087 121 376 1324 1088 122 377 1325 1144 1825 1148 454 161 1418 457 1424 1147 1829 459 1425 1827 1149 1830 460 1427 1831 1832 
420 1088 122 377 1325 1089 123 378 1326 1147 1829 1151 459 162 1425 462 1431 1150 1833 464 1432 1831 1152 1834 465 1434 1835 1836 
421 1089 123 378 1326 1090 124 379 1327 1150 1833 1154 464 163 1432 467 1438 1153 1837 469 1439 1835 1155 1838 470 1441 1839 1840 
422 1090 124 379 1327 1091 125 380 1328 1153 1837 1157 469 164 1439 472 1445 1156 1841 474 1446 1839 1158 1842 475 1448 1843 1844 
423 1091 125 380 1328 1092 126 381 1329 1156 1841 1160 474 165 1446 477 1452 1159 1845 479 1453 1843 1161 1846 480 1455 1847 1848 
424 1092 126 381 1329 1093 127 382 1330 1159 1845 1163 479 166 1453 482 1459 1162 1849 484 1460 1847 1164 1850 485 1462 1851 1852 
425 1093 127 382 1330 1094 128 383 1331 1162 1849 1166 484 167 1460 487 1466 1165 1853 489 1467 1851 1167 1854 490 1469 1855 1856 
426 1094 128 383 1331 1095 129 384 1332 1165 1853 1169 489 168 1467 492 1473 1168 1857 494 1474 1855 1170 1858 495 1476 1859 1860 
427 1095 129 384 1332 1096 130 385 1333 1168 1857 1172 494 169 1474 497 1480 1171 1861 499 1481 1859 1173 1862 500 1483 1863 1864 
428 1096 130 385 1333 1097 131 386 1334 1171 1861 1175 499 170 1481 502 1487 1174 1865 504 1488 1863 1176 1866 505 1490 1867 1868 
429 1097 131 386 1334 1098 132 387 1335 1174 1865 1178 504 171 1488 507 1494 1177 1869 509 1495 1867 1179 1870 510 1497 1871 1872 
430 1098 132 387 1335 1099 133 388 1336 1177 1869 1181 509 172 1495 512 1501 1180 1873 514 1502 1871 1182 1874 515 1504 1875 1876 
431 1099 133 388 1336 1100 134 389 1337 1180 1873 1184 514 173 1502 517 1508 1183 1877 519 1509 1875 1185 1878 520 1511 1879 1880 
432 1100 134 389 1337 1101 135 390 1338 1183 1877 1187 519 174 1509 522 1515 1186 1881 524 1516 1879 1188 1882 525 1518 1883 1884 
433 1101 135 390 1338 1102 136 391 1339 1186 1881 1190 524 175 1516 527 1522 1189 1885 529 1523 1883 1191 1886 530 1525 1887 1888 
434 1102 136 391 1339 1103 137 392 1340 1189 1885 1193 529 176 1523 532 1529 1192 1889 534 1530 1887 1194 1890 535 1532 1891 1892 
435 1103 137 392 1340 1104 138 393 1341 1192 1889 1196 534 177 1530 537 1536 1195 1893 539 1537 1891 1197 1894 540 1539 1895 1896 
436 1104 138 393 1341 1105 139 394 1342 1195 1893 1199 539 178 1537 542 1543 1198 1897 544 1544 1895 1200 1898 545 1546 1899 1900 
437 1105 139 394 1342 1106 140 395 1343 1198 1897 1202 544 179 1544 547 1550 1201 1901 549 1551 1899 1203 1902 550 1553 1903 1904 
438 1106 140 395 1343 1107 141 396 1344 1201 1901 1205 549 180 1551 552 1557 1204 1905 554 1558 1903 1206 1906 555 1560 1907 1908 
439 1107 141 396 1344 1108 142 397 1345 1204 1905 1208 554 181 1558 557 1564 1207 1909 559 1565 1907 1209 1910 560 1567 1911 1912 
440 1108 142 397 1345 1109 143 398 1346 1207 1909 1211 559 182 1565 562 1571 1210 1913 564 1572 1911 1212 1914 565 1574 1915 1916 
441 1109 143 398 1346 1110 144 399 1347 1210 1913 1214 564 183 1572 567 1578 1213 1917 569 1579 1915 1215 1918 570 1581 1919 1920 
442 1110 144 399 1347 1111 145 400 1348 1213 1917 1217 569 184 1579 572 1585 1216 1921 574 1586 1919 1218 1922 575 1588 1923 1924 
443 1111 145 400 1348 1112 146 401 1349 1216 1921 1220 574 185 1586 577 1592 1219 1925 579 1593 1923 1221 1926 580 1595 1927 1928 
444 1112 146 401 1349 1113 147 402 1350 1219 1925 1223 579 186 1593 582 1599 1222 1929 584 1600 1927 1224 1930 585 1602 1931 1932 
445 1113 147 402 1350 1114 148 403 1351 1222 1929 1226 584 187 1600 587 1606 1225 1933 589 1607 1931 1227 1934 590 1609 1935 1936 
446 1114 148 403 1351 1115 149 404 1352 1225 1933 1229 589 188 1607 592 1613 1228 1937 594 1614 1935 1230 1938 595 1616 1939 1940 
447 1115 149 404 1352 1116 150 405 1353 1228 1937 1232 594 189 1614 597 1620 1231 1941 599 1621 1939 1233 1942 600 1623 1943 1944 
448 1116 150 405 1353 24 5 21 358 1231 1941 1234 599 190 1621 601 1627 25 364 23 360 1943 1235 1945 603 1628 365 1946 
449 3 12 349 15 270 1078 1315 604 14 17 309 355 1118 353 1354 643 1236 646 1789 1631 357 1237 647 1790 1632 1947 1948 
450 270 1078 1315 604 271 1079 1316 605 1236 646 310 1789 1121 1631 1361 648 1238 651 1793 1635 1947 1239 652 1794 1636 1949 1950 
451 271 1079 1316 605 272 1080 1317 606 1238 651 311 1793 1124 1635 1368 653 1240 656 1797 1639 1949 1241 657 1798 1640 1951 1952 
452 272 1080 1317 606 273 1081 1318 607 1240 656 312 1797 1127 1639 1375 658 1242 661 1801 1643 1951 1243 662 1802 1644 1953 1954 
453 273 1081 1318 607 274 1082 1319 608 1242 661 313 1801 1130 1643 1382 663 1244 666 1805 1647 1953 1245 667 1806 1648 1955 1956 
454 274 1082 1319 608 275 1083 1320 609 1244 666 314 1805 1133 1647 1389 668 1246 671 1809 1651 1955 1247 672 1810 1652 1957 1958 
455 275 1083 1320 609 276 1084 1321 610 1246 671 315 1809 1136 1651 1396 673 1248 676 1813 1655 1957 1249 677 1814 1656 1959 1960 
456 276 1084 1321 610 277 1085 1322 611 1248 676 316 1813 1139 1655 1403 678 1250 681 1817 1659 1959 1251 682 1818 1660 1961 1962 
457 277 1085 1322 611 278 1086 1323 612 1250 681 317 1817 1142 1659 1410 683 1252 686 1821 1663 1961 1253 687 1822 1664 1963 1964 
458 278 1086 1323 612 279 1087 1324 613 1252 686 318 1821 1145 1663 1417 688 1254 691 1825 1667 1963 1255 692 1826 1668 1965 1966 
459 279 1087 1324 613 280 1088 1325 614 1254 691 319 1825 1148 1667 1424 693 1256 696 1829 1671 1965 1257 697 1830 1672 1967 1968 
460 280 1088 1325 614 281 1089 1326 615 1256 696 320 1829 1151 1671 1431 698 1258 701 1833 1675 1967 1259 702 1834 1676 1969 1970 
461 281 1089 1326 615 282 1090 1327 616 1258 701 321 1833 1154 1675 1438 703 1260 706 1837 1679 1969 1261 707 1838 1680 1971 1972 
462 282 1090 1327 616 283 1091 1328 617 1260 706 322 1837 1157 1679 1445 708 1262 711 1841 1683 1971 1263 712 1842 1684 1973 1974 
463 283 1091 1328 617 284 1092 1329 618 1262 711 323 1841 1160 1683 1452 713 1264 716 1845 1687 1973 1265 717 1846 1688 1975 1976 
464 284 1092 1329 618 285 1093 1330 619 1264 716 324 1845 1163 1687 1459 718 1266 721 1849 1691 1975 1267 722 1850 1692 1977 1978 
465 285 1093 1330 619 286 1094 1331 620 1266 721 325 1849 1166 1691 1466 723 1268 726 1853 1695 1977 1269 727 1854 1696 1979 1980 
466 286 1094 1331 620 287 1095 1332 621 1268 726 326 1853 1169 1695 1473 728 1270 731 1857 1699 1979 1271 732 1858 1700 1981 1982 
467 287 1095 1332 621 288 1096 1333 622 1270 731 327 1857 1172 1699 1480 733 1272 736 1861 1703 1981 1273 737 1862 1704 1983 1984 
468 288 1096 1333 622 289 1097 1334 623 1272 736 328 1861 1175 1703 1487 738 1274 741 1865 1707 1983 1275 742 1866 1708 1985 1986 
469 289 1097 1334 623 290 1098 1335 624 1274 741 329 1865 1178 1707 1494 743 1276 746 1869 1711 1985 1277 747 1870 1712 1987 1988 
470 290 1098 1335 624 291 1099 1336 625 1276 746 330 1869 1181 1711 1501 748 1278 751 1873 1715 1987 1279 752 1874 1716 1989 1990 
471 291 1099 1336 625 292 1100 1337 626 1278 751 331 1873 1184 1715 1508 753 1280 756 1877 1719 1989 1281 757 1878 1720 1991 1992 
472 292 1100 1337 626 293 1101 1338 627 1280 756 332 1877 1187 1719 1515 758 1282 761 1881 1723 1991 1283 762 1882 1724 1993 1994 
473 293 1101 1338 627 294 1102 1339 628 1282 761 333 1881 1190 1723 1522 763 1284 766 1885 1727 1993 1285 767 1886 1728 1995 1996 
474 294 1102 1339 628 295 1103 1340 629 1284 766 334 1885 1193 1727 1529 768 1286 771 1889 1731 1995 1287 772 1890 1732 1997 1998 
475 295 1103 1340 629 296 1104 1341 630 1286 771 335 1889 1196 1731 1536 773 1288 776 1893 1735 1997 1289 777 1894 1736 1999 2000 
476 296 1104 1341 630 297 1105 1342 631 1288 776 336 1893 1199 1735 1543 778 1290 781 1897 1739 1999 1291 782 1898 1740 2001 2002 
477 297 1105 1342 631 298 1106 1343 632 1290 781 337 1897 1202 1739 1550 783 1292 786 1901 1743 2001 1293 787 1902 1744 2003 2004 
478 298 1106 1343 632 299 1107 1344 633 1292 786 338 1901 1205 1743 1557 788 1294 791 1905 1747 2003 1295 792 1906 1748 2005 2006 
479 299 1107 1344 633 300 1108 1345 634 1294 791 339 1905 1208 1747 1564 793 1296 796 1909 1751 2005 1297 797 1910 1752 2007 2008 
480 300 1108 1345 634 301 1109 1346 635 1296 796 340 1909 1211 1751 1571 798 1298 801 1913 1755 2007 1299 802 1914 1756 2009 2010 
481 301 1109 1346 635 302 1110 1347 636 1298 801 341 1913 1214 1755 1578 803 1300 806 1917 1759 2009 1301 807 1918 1760 2011 2012 
482 302 1110 1347 636 303 1111 1348 637 1300 806 342 1917 1217 1759 1585 808 1302 811 1921 1763 2011 1303 812 1922 1764 2013 2014 
483 303 1111 1348 637 304 1112 1349 638 1302 811 343 1921 1220 1763 1592 813 1304 816 1925 1767 2013 1305 817 1926 1768 2015 2016 
484 304 1112 1349 638 305 1113 1350 639 1304 816 344 1925 1223 1767 1599 818 1306 821 1929 1771 2015 1307 822 1930 1772 2017 2018 
485 305 1113 1350 639 306 1114 1351 640 1306 821 345 1929 1226 1771 1606 823 1308 826 1933 1775 2017 1309 827 1934 1776 2019 2020 
486 306 1114 1351 640 307 1115 1352 641 1308 826 346 1933 1229 1775 1613 828 1310 831 1937 1779 2019 1311 832 1938 1780 2021 2022 
487 307 1115 1352 641 308 1116 1353 642 1310 831 347 1937 1232 1779 1620 833 1312 836 1941 1783 2021 1313 837 1942 1784 2023 2024 
488 308 1116 1353 642 7 24 358 27 1312 836 348 1941 1234 1783 1627 838 26 29 364 362 2023 1314 840 1945 1787 366 2025 
$EndElements
