$MeshFormat
4.1 0 8
$EndMeshFormat
$PhysicalNames
7
0 1 "Dirichlet"
1 1 "Dirichlet"
1 2 "Neumann"
2 1 "Dirichlet"
2 2 "Neumann"
2 3 "Boundary"
3 4 "Volume"
$EndPhysicalNames
$Entities
8 12 6 1
1 0 0 0 1 1 
2 1000 0 0 1 1 
3 1000 10 0 2 1 2 
4 0 10 0 2 1 2 
5 0 0 24 1 1 
6 1000 0 24 1 1 
7 1000 10 24 2 1 2 
8 0 10 24 2 1 2 
1 0 0 0 1000 0 0 0 2 1 -2 
2 1000 0 0 1000 10 0 1 1 2 2 -3 
3 0 10 0 1000 10 0 1 2 2 3 -4 
4 0 0 0 0 10 0 1 1 2 4 -1 
5 0 0 24 1000 0 24 0 2 5 -6 
6 1000 0 24 1000 10 24 1 1 2 6 -7 
7 0 10 24 1000 10 24 1 2 2 7 -8 
8 0 0 24 0 10 24 1 1 2 8 -5 
9 0 0 0 0 0 24 1 1 2 1 -5 
10 1000 0 0 1000 0 24 1 1 2 2 -6 
11 1000 10 0 1000 10 24 2 1 2 2 3 -7 
12 0 10 0 0 10 24 2 1 2 2 4 -8 
1 0 0 0 1000 10 0 0 4 1 2 3 4 
2 0 0 24 1000 10 24 0 4 5 6 7 8 
3 0 0 0 1000 0 24 0 4 1 10 -5 -9 
4 1000 0 0 1000 10 24 1 1 4 2 11 -6 -10 
5 0 10 0 1000 10 24 1 2 4 3 12 -7 -11 
6 0 0 0 0 10 24 1 1 4 4 9 -8 -12 
1 0 0 0 1000 10 24 1 4 6 1 2 3 4 5 6 
$EndEntities
$Nodes
26 126 1 126
0 1 0 1
1
0 0 0
0 2 0 1
2
1000 0 0
0 3 0 1
3
1000 10 0
0 4 0 1
4
0 10 0
0 5 0 1
5
0 0 24
0 6 0 1
6
1000 0 24
0 7 0 1
7
1000 10 24
0 8 0 1
8
0 10 24
1 1 0 19
9
10
11
12
13
14
15
16
17
18
19
20
21
22
23
24
25
26
27
49.99999999996744 0 0
99.99999999996535 0 0
149.9999999999183 0 0
199.9999999997947 0 0
249.999999999671 0 0
299.9999999996783 0 0
349.9999999996969 0 0
399.9999999997153 0 0
449.9999999997337 0 0
499.9999999997633 0 0
549.999999999837 0 0
599.9999999998549 0 0
649.9999999998731 0 0
699.9999999998913 0 0
749.9999999999093 0 0
799.9999999999275 0 0
849.9999999999455 0 0
899.9999999999636 0 0
949.9999999999817 0 0
1 2 0 1
28
1000 4.999999999992394 0
1 3 0 19
29
30
31
32
33
34
35
36
37
38
39
40
41
42
43
44
45
46
47
950.0000000000033 10 0
900.0000000000066 10 0
850.0000000000099 10 0
800.0000000000132 10 0
750.0000000000166 10 0
700.0000000000199 10 0
650.0000000000232 10 0
600.0000000000266 10 0
550.0000000000299 10 0
500.0000000000221 10 0
449.99999999997 10 0
399.9999999999733 10 0
349.9999999999766 10 0
299.99999999998 10 0
249.9999999999834 10 0
199.9999999999866 10 0
149.9999999999899 10 0
99.99999999999329 10 0
49.9999999999967 10 0
1 4 0 1
48
0 5.000000000000004 0
1 5 0 19
49
50
51
52
53
54
55
56
57
58
59
60
61
62
63
64
65
66
67
49.99999999996744 0 24
99.99999999996535 0 24
149.9999999999183 0 24
199.9999999997947 0 24
249.999999999671 0 24
299.9999999996783 0 24
349.9999999996969 0 24
399.9999999997153 0 24
449.9999999997337 0 24
499.9999999997633 0 24
549.999999999837 0 24
599.9999999998549 0 24
649.9999999998731 0 24
699.9999999998913 0 24
749.9999999999093 0 24
799.9999999999275 0 24
849.9999999999455 0 24
899.9999999999636 0 24
949.9999999999817 0 24
1 6 0 1
68
1000 4.999999999992394 24
1 7 0 19
69
70
71
72
73
74
75
76
77
78
79
80
81
82
83
84
85
86
87
950.0000000000033 10 24
900.0000000000066 10 24
850.0000000000099 10 24
800.0000000000132 10 24
750.0000000000166 10 24
700.0000000000199 10 24
650.0000000000232 10 24
600.0000000000266 10 24
550.0000000000299 10 24
500.0000000000221 10 24
449.99999999997 10 24
399.9999999999733 10 24
349.9999999999766 10 24
299.99999999998 10 24
249.9999999999834 10 24
199.9999999999866 10 24
149.9999999999899 10 24
99.99999999999329 10 24
49.9999999999967 10 24
1 8 0 1
88
0 5.000000000000004 24
1 9 0 0
1 10 0 0
1 11 0 0
1 12 0 0
2 1 0 19
89
90
91
92
93
94
95
96
97
98
99
100
101
102
103
104
105
106
107
49.99999999998208 4.999999999999623 0
99.99999999997934 4.999999999999243 0
149.9999999999541 4.999999999998861 0
199.9999999998906 4.999999999998481 0
249.9999999998272 4.999999999998101 0
299.9999999998292 4.999999999997721 0
349.9999999998369 4.999999999997339 0
399.9999999998442 4.999999999996959 0
449.9999999998519 4.999999999996579 0
499.9999999998927 4.999999999996199 0
549.9999999999334 4.999999999995818 0
599.9999999999407 4.999999999995438 0
649.9999999999482 4.999999999995058 0
699.9999999999558 4.999999999994676 0
749.9999999999629 4.999999999994296 0
799.9999999999707 4.999999999993916 0
849.9999999999777 4.999999999993534 0
899.9999999999852 4.999999999993154 0
949.9999999999925 4.999999999992774 0
2 2 0 19
108
109
110
111
112
113
114
115
116
117
118
119
120
121
122
123
124
125
126
49.99999999998208 4.999999999999623 24
99.99999999997934 4.999999999999243 24
149.9999999999541 4.999999999998861 24
199.9999999998906 4.999999999998481 24
249.9999999998272 4.999999999998101 24
299.9999999998292 4.999999999997721 24
349.9999999998369 4.999999999997339 24
399.9999999998442 4.999999999996959 24
449.9999999998519 4.999999999996579 24
499.9999999998927 4.999999999996199 24
549.9999999999334 4.999999999995818 24
599.9999999999407 4.999999999995438 24
649.9999999999482 4.999999999995058 24
699.9999999999558 4.999999999994676 24
749.9999999999629 4.999999999994296 24
799.9999999999707 4.999999999993916 24
849.9999999999777 4.999999999993534 24
899.9999999999852 4.999999999993154 24
949.9999999999925 4.999999999992774 24
2 4 0 0
2 5 0 0
2 6 0 0
3 1 0 0
$EndNodes
$Elements
22 124 1 124
0 1 15 1
1 1 
0 2 15 1
2 2 
0 3 15 1
3 3 
0 4 15 1
4 4 
0 5 15 1
5 5 
0 6 15 1
6 6 
0 7 15 1
7 7 
0 8 15 1
8 8 
1 2 1 2
9 2 28 
10 28 3 
1 3 1 20
11 3 29 
12 29 30 
13 30 31 
14 31 32 
15 32 33 
16 33 34 
17 34 35 
18 35 36 
19 36 37 
20 37 38 
21 38 39 
22 39 40 
23 40 41 
24 41 42 
25 42 43 
26 43 44 
27 44 45 
28 45 46 
29 46 47 
30 47 4 
1 4 1 2
31 4 48 
32 48 1 
1 6 1 2
33 6 68 
34 68 7 
1 7 1 20
35 7 69 
36 69 70 
37 70 71 
38 71 72 
39 72 73 
40 73 74 
41 74 75 
42 75 76 
43 76 77 
44 77 78 
45 78 79 
46 79 80 
47 80 81 
48 81 82 
49 82 83 
50 83 84 
51 84 85 
52 85 86 
53 86 87 
54 87 8 
1 8 1 2
55 8 88 
56 88 5 
1 9 1 1
57 1 5 
1 10 1 1
58 2 6 
1 11 1 1
59 3 7 
1 12 1 1
60 4 8 
2 4 3 2
61 2 28 68 6 
62 28 3 7 68 
2 5 3 20
63 3 29 69 7 
64 29 30 70 69 
65 30 31 71 70 
66 31 32 72 71 
67 32 33 73 72 
68 33 34 74 73 
69 34 35 75 74 
70 35 36 76 75 
71 36 37 77 76 
72 37 38 78 77 
73 38 39 79 78 
74 39 40 80 79 
75 40 41 81 80 
76 41 42 82 81 
77 42 43 83 82 
78 43 44 84 83 
79 44 45 85 84 
80 45 46 86 85 
81 46 47 87 86 
82 47 4 8 87 
2 6 3 2
83 4 48 88 8 
84 48 1 5 88 
3 1 5 40
85 1 9 89 48 5 49 108 88 
86 48 89 47 4 88 108 87 8 
87 9 10 90 89 49 50 109 108 
88 89 90 46 47 108 109 86 87 
89 10 11 91 90 50 51 110 109 
90 90 91 45 46 109 110 85 86 
91 11 12 92 91 51 52 111 110 
92 91 92 44 45 110 111 84 85 
93 12 13 93 92 52 53 112 111 
94 92 93 43 44 111 112 83 84 
95 13 14 94 93 53 54 113 112 
96 93 94 42 43 112 113 82 83 
97 14 15 95 94 54 55 114 113 
98 94 95 41 42 113 114 81 82 
99 15 16 96 95 55 56 115 114 
100 95 96 40 41 114 115 80 81 
101 16 17 97 96 56 57 116 115 
102 96 97 39 40 115 116 79 80 
103 17 18 98 97 57 58 117 116 
104 97 98 38 39 116 117 78 79 
105 18 19 99 98 58 59 118 117 
106 98 99 37 38 117 118 77 78 
107 19 20 100 99 59 60 119 118 
108 99 100 36 37 118 119 76 77 
109 20 21 101 100 60 61 120 119 
110 100 101 35 36 119 120 75 76 
111 21 22 102 101 61 62 121 120 
112 101 102 34 35 120 121 74 75 
113 22 23 103 102 62 63 122 121 
114 102 103 33 34 121 122 73 74 
115 23 24 104 103 63 64 123 122 
116 103 104 32 33 122 123 72 73 
117 24 25 105 104 64 65 124 123 
118 104 105 31 32 123 124 71 72 
119 25 26 106 105 65 66 125 124 
120 105 106 30 31 124 125 70 71 
121 26 27 107 106 66 67 126 125 
122 106 107 29 30 125 126 69 70 
123 27 2 28 107 67 6 68 126 
124 107 28 3 29 126 68 7 69 
$EndElements
