<?xml version="1.0" encoding="UTF-8" standalone="no"?>
<!-- Created with Inkscape (http://www.inkscape.org/) -->

<svg
   width="231.71465mm"
   height="138.44995mm"
   viewBox="0 0 231.71465 138.44995"
   version="1.1"
   id="svg1"
   xml:space="preserve"
   inkscape:version="1.3.2 (091e20e, 2023-11-25)"
   sodipodi:docname="logo.svg"
   inkscape:export-filename="logo.png"
   inkscape:export-xdpi="200"
   inkscape:export-ydpi="200"
   xmlns:inkscape="http://www.inkscape.org/namespaces/inkscape"
   xmlns:sodipodi="http://sodipodi.sourceforge.net/DTD/sodipodi-0.dtd"
   xmlns:xlink="http://www.w3.org/1999/xlink"
   xmlns="http://www.w3.org/2000/svg"
   xmlns:svg="http://www.w3.org/2000/svg"><sodipodi:namedview
     id="namedview1"
     pagecolor="#ffffff"
     bordercolor="#999999"
     borderopacity="1"
     inkscape:showpageshadow="2"
     inkscape:pageopacity="0"
     inkscape:pagecheckerboard="false"
     inkscape:deskcolor="#d1d1d1"
     inkscape:document-units="mm"
     inkscape:zoom="0.77333244"
     inkscape:cx="360.77628"
     inkscape:cy="457.75915"
     inkscape:window-width="1728"
     inkscape:window-height="1055"
     inkscape:window-x="0"
     inkscape:window-y="34"
     inkscape:window-maximized="0"
     inkscape:current-layer="layer2"
     showguides="false" /><defs
     id="defs1"><linearGradient
       id="linearGradient92"
       inkscape:collect="always"><stop
         style="stop-color:#4063d8;stop-opacity:1;"
         offset="0"
         id="stop91" /><stop
         style="stop-color:#3253c1;stop-opacity:0.51764706;"
         offset="0.60890299"
         id="stop93" /><stop
         style="stop-color:#2342a9;stop-opacity:0;"
         offset="1"
         id="stop92" /></linearGradient><linearGradient
       id="linearGradient89"
       inkscape:collect="always"><stop
         style="stop-color:#389826;stop-opacity:1;"
         offset="0"
         id="stop88" /><stop
         style="stop-color:#308021;stop-opacity:0.52156863;"
         offset="0.62469476"
         id="stop90" /><stop
         style="stop-color:#28661c;stop-opacity:0;"
         offset="1"
         id="stop89" /></linearGradient><marker
       style="overflow:visible"
       id="Triangle_Fnone_S-ffffff"
       refX="0"
       refY="0"
       orient="auto-start-reverse"
       inkscape:stockid="Triangle arrow"
       markerWidth="1"
       markerHeight="1"
       viewBox="0 0 1 1"
       inkscape:isstock="true"
       inkscape:collect="always"
       preserveAspectRatio="xMidYMid"><path
         transform="scale(0.5)"
         style="fill:#ffffff;fill-rule:evenodd;stroke:#ffffff;stroke-width:1pt"
         d="M 5.77,0 -2.88,5 V -5 Z"
         id="path1" /></marker><linearGradient
       id="linearGradient19"
       inkscape:collect="always"><stop
         style="stop-color:#9558b2;stop-opacity:0.59748429;"
         offset="0"
         id="stop19" /><stop
         style="stop-color:#9557b2;stop-opacity:1;"
         offset="0.46189767"
         id="stop25" /><stop
         style="stop-color:#763d8f;stop-opacity:1;"
         offset="0.99989998"
         id="stop20" /></linearGradient><linearGradient
       id="linearGradient17"
       inkscape:collect="always"><stop
         style="stop-color:#cb3c33;stop-opacity:1;"
         offset="0"
         id="stop17" /><stop
         style="stop-color:#a42f28;stop-opacity:1;"
         offset="1"
         id="stop18" /></linearGradient><linearGradient
       inkscape:collect="always"
       xlink:href="#linearGradient17"
       id="linearGradient18"
       x1="34.220585"
       y1="56.50996"
       x2="112.53053"
       y2="147.72348"
       gradientUnits="userSpaceOnUse" /><linearGradient
       inkscape:collect="always"
       xlink:href="#linearGradient19"
       id="linearGradient20"
       x1="102.53748"
       y1="154.24069"
       x2="171.71431"
       y2="66.438721"
       gradientUnits="userSpaceOnUse" /><linearGradient
       inkscape:collect="always"
       xlink:href="#linearGradient89"
       id="linearGradient22-7"
       x1="196.1002"
       y1="75.179466"
       x2="189.53523"
       y2="175.88144"
       gradientUnits="userSpaceOnUse"
       gradientTransform="translate(-15.553886,-41.68808)" /><linearGradient
       inkscape:collect="always"
       xlink:href="#linearGradient92"
       id="linearGradient23-9"
       x1="42.591404"
       y1="98.847603"
       x2="52.00153"
       y2="174.16444"
       gradientUnits="userSpaceOnUse" /></defs><g
     inkscape:groupmode="layer"
     id="layer5"
     inkscape:label="black_background"
     inkscape:highlight-color="#000000"
     transform="translate(27.644875,-0.62208992)"
     style="display:none"><rect
       style="display:inline;fill:#000000;fill-opacity:1;stroke:#9558b2;stroke-width:2.21306;stroke-dasharray:none;stroke-opacity:1"
       id="rect25"
       width="270.16397"
       height="211.67671"
       x="-49.861427"
       y="-25.452978"
       ry="4.4639384e-07"
       inkscape:label="black_rectangle" /></g><g
     inkscape:label="Blue"
     inkscape:groupmode="layer"
     id="layer1"
     transform="translate(12.090989,-42.310171)"
     inkscape:highlight-color="#4063d8"><path
       style="fill:url(#linearGradient23-9);fill-opacity:1;stroke:#fefefe;stroke-width:2;stroke-dasharray:none;stroke-opacity:1"
       d="m 105.06483,169.79689 c -14.845112,0 -38.278576,-33.33776 -42.858287,-46.17275 C 54.809372,102.89301 55.576895,59.071824 78.946958,80.74999 68.798863,65.240467 66.654782,57.127778 50.036591,53.784273 5.5377937,67.386325 12.019121,118.23503 -11.153954,180.41089"
       id="path7-9"
       sodipodi:nodetypes="csccc"
       inkscape:label="surface_blue" /></g><g
     inkscape:groupmode="layer"
     id="layer4"
     inkscape:label="Red"
     inkscape:highlight-color="#cb3c33"
     transform="translate(27.644875,-0.62208992)"
     style="display:inline"><path
       style="fill:url(#linearGradient18);fill-opacity:1;stroke:#ffffff;stroke-width:2;stroke-dasharray:none;stroke-opacity:1"
       d="m 5.686087,120.77224 c 8.135094,-38.938319 23.301717,-66.400619 44.350504,-68.01326 21.048787,-1.612641 39.786984,56.26169 67.381959,47.49134 27.59497,-8.770343 9.06809,-7.455667 21.93135,-14.68467 8.86497,-4.982016 18.00166,0.197512 22.80304,4.070233 C 175.13821,100.1096 134.23975,168.77108 105,169.79928 82.210925,170.60064 56.130872,129.36455 44.758602,105.06812 34.60001,83.364665 14.85889,89.255214 5.686087,120.77224 Z"
       id="path5"
       sodipodi:nodetypes="czzssssc"
       transform="translate(-15.553886,-41.688081)"
       inkscape:label="surface_red" /><g
       id="g93"
       inkscape:label="grid_red"><path
         style="fill:none;fill-opacity:1;stroke:#ffffff;stroke-width:1;stroke-dasharray:none;stroke-opacity:1"
         d="M 10.654236,51.043305 C 13.09719,36.049961 22.328484,17.419374 25.569906,13.419216"
         id="path79"
         sodipodi:nodetypes="cc" /><path
         style="fill:none;fill-opacity:1;stroke:#ffffff;stroke-width:1;stroke-dasharray:none;stroke-opacity:1"
         d="M 45.960276,15.455454 C 36.625583,22.422038 27.672955,36.764939 26.701726,58.724839"
         id="path80"
         sodipodi:nodetypes="cc" /><path
         style="fill:none;fill-opacity:1;stroke:#ffffff;stroke-width:1;stroke-dasharray:none;stroke-opacity:1"
         d="M 36.644628,77.445023 C 35.690738,57.531261 46.688533,42.630857 58.863139,29.023668"
         id="path81"
         sodipodi:nodetypes="cc" /><path
         style="display:inline;fill:none;fill-opacity:1;stroke:#ffffff;stroke-width:1;stroke-dasharray:none;stroke-opacity:1"
         d="M 47.269208,84.168622 C 49.471788,68.583914 63.433124,51.05845 70.206852,42.838888"
         id="path83"
         sodipodi:nodetypes="cc" /><path
         style="fill:none;fill-opacity:1;stroke:#ffffff;stroke-width:1;stroke-dasharray:none;stroke-opacity:1"
         d="M 65.291398,87.641864 C 70.639052,73.00836 80.368484,59.621782 84.145617,55.604527"
         id="path83-7"
         sodipodi:nodetypes="cc" /><path
         style="fill:none;fill-opacity:1;stroke:#ffffff;stroke-width:1;stroke-dasharray:none;stroke-opacity:1"
         d="M -0.69499556,47.567133 C 3.6742071,36.900838 16.824274,30.94252 24.21303,36.900838 c 7.388756,5.958318 14.871592,20.582627 25.056869,38.023201 2.712091,4.644 6.061828,9.156786 9.746025,13.117263"
         id="path84"
         sodipodi:nodetypes="czsc" /><path
         style="fill:none;fill-opacity:1;stroke:#ffffff;stroke-width:1;stroke-dasharray:none;stroke-opacity:1"
         d="m 17.67247,18.653893 c 8.529744,-4.850374 14.990314,-5.267435 20.999683,0.194155 6.009369,5.46159 16.290703,22.899385 24.35033,34.102518 5.515907,7.667283 17.100591,17.718154 28.43499,18.592932"
         id="path85"
         sodipodi:nodetypes="czsc" /><path
         style="fill:none;fill-opacity:1;stroke:#ffffff;stroke-width:1;stroke-dasharray:none;stroke-opacity:1"
         d="m 7.5094921,31.008822 c 5.6588969,-7.771892 15.2975509,-8.55673 21.0837009,-5.230443 4.627562,2.660249 13.425754,16.147384 27.152351,37.2768 6.203308,9.548782 12.532207,17.107202 23.213237,20.30215"
         id="path85-1"
         sodipodi:nodetypes="cssc" /><path
         style="fill:none;fill-opacity:1;stroke:#ffffff;stroke-width:1;stroke-dasharray:none;stroke-opacity:1"
         d="M 91.889656,106.21126 Z"
         id="path86" /><path
         style="display:none;fill:none;fill-opacity:1;stroke:#ffffff;stroke-width:1;stroke-dasharray:none;stroke-opacity:1"
         d="m 72.373814,121.42722 c 0,0 -3.575967,-5.98662 4.784195,-25.062241 8.360162,-19.075617 12.950624,-26.813126 12.950624,-26.813126"
         id="path82"
         sodipodi:nodetypes="czc" /></g></g><g
     inkscape:groupmode="layer"
     id="layer2"
     inkscape:label="Purple"
     style="display:inline"
     inkscape:highlight-color="#8c50a8"
     transform="translate(27.644875,-0.62208992)"><path
       style="display:inline;fill:url(#linearGradient20);fill-opacity:1;stroke:#ffffff;stroke-width:2;stroke-dasharray:none;stroke-opacity:1"
       d="m 44.409955,104.18341 c 0,0 12.074133,26.00377 31.919658,25.52474 46.496327,-1.12233 44.926267,-78.660352 98.404277,-84.802014 3.54426,0.888444 25.38954,-11.040294 35.68655,39.571598 -15.06711,-33.62385 -52.79128,36.375776 -54.49557,39.015486 -16.3094,25.26103 -32.64061,45.14074 -52.25799,46.09029 -19.617377,0.94955 -46.364857,-36.87971 -59.256925,-65.4001 z"
       id="path4"
       sodipodi:nodetypes="czccszc"
       inkscape:label="surface_purple"
       transform="translate(-15.553886,-41.688081)" /><g
       id="g57"
       style="display:inline"
       inkscape:label="grid_purple"><path
         style="display:inline;fill:none;fill-opacity:1;stroke:#ffffff;stroke-width:1;stroke-dasharray:none;stroke-opacity:1"
         d="m 65.015136,140.14231 c 13.134612,8.35481 29.778936,4.77449 41.114754,-5.7741 15.37007,-14.30268 38.48572,-56.060691 54.06423,-72.038904 15.57851,-15.978213 26.70413,-12.020566 24.62611,-12.376182"
         id="path26"
         sodipodi:nodetypes="cszc"
         transform="translate(-15.553886,-41.688081)" /><path
         style="display:inline;fill:none;fill-opacity:1;stroke:#ffffff;stroke-width:1;stroke-dasharray:none;stroke-opacity:1"
         d="m 77.382864,154.52674 c 8.663924,5.22182 21.771894,1.08576 30.060676,-6.6274 15.37008,-14.30268 47.87038,-62.761179 62.62354,-78.939926 14.75315,-16.178748 22.07671,-11.640747 22.07671,-11.640747"
         id="path26-6"
         sodipodi:nodetypes="cszc"
         transform="translate(-15.553886,-41.688081)" /><path
         style="display:inline;fill:none;fill-opacity:1;stroke:#ffffff;stroke-width:1;stroke-dasharray:none;stroke-opacity:1"
         d="m 91.107394,165.82652 c 0,0 9.659966,2.90581 26.971276,-11.6742 17.3113,-14.58001 45.12056,-64.523142 59.72452,-78.21308 14.60396,-13.689937 21.29976,-10.586528 21.29976,-10.586528"
         id="path26-4"
         sodipodi:nodetypes="czzc"
         transform="translate(-15.553886,-41.688081)" /><path
         style="display:inline;fill:none;fill-opacity:1;stroke:#ffffff;stroke-width:1;stroke-dasharray:none;stroke-opacity:1"
         d="m 62.24179,87.958583 c 7.14539,10.455818 25.648435,25.006007 33.453629,28.355047 10.474871,4.49454 14.124371,2.65207 14.124371,2.65207"
         id="path27"
         sodipodi:nodetypes="csc" /><path
         style="display:inline;fill:none;fill-opacity:1;stroke:#ffffff;stroke-width:1;stroke-dasharray:none;stroke-opacity:1"
         d="m 81.910293,80.776968 c 0,0 15.255166,15.047305 25.516457,19.769222 10.2613,4.72192 15.66438,5.02228 15.66438,5.02228"
         id="path28"
         sodipodi:nodetypes="czc" /><path
         style="display:inline;fill:none;fill-opacity:1;stroke:#ffffff;stroke-width:1;stroke-dasharray:none;stroke-opacity:1"
         d="m 94.107957,68.201065 c 0,0 10.703963,9.608595 24.047493,16.316208 13.34353,6.707613 16.45259,5.977217 16.45259,5.977217"
         id="path29"
         sodipodi:nodetypes="czc" /><path
         style="display:inline;fill:none;fill-opacity:1;stroke:#ffffff;stroke-width:1;stroke-dasharray:none;stroke-opacity:1"
         d="m 105.18552,51.146679 c 0,0 15.90352,12.309327 25.95443,17.592906 10.05091,5.283579 13.38581,6.067961 13.38581,6.067961"
         id="path30"
         sodipodi:nodetypes="czc" /><path
         style="display:inline;fill:none;fill-opacity:1;stroke:#ffffff;stroke-width:1;stroke-dasharray:none;stroke-opacity:1"
         d="m 116.14415,33.42119 c 0,0 15.55354,11.231645 25.81065,17.690362 10.25711,6.458718 13.77434,6.706041 13.77434,6.706041"
         id="path31"
         sodipodi:nodetypes="czc" /><path
         style="display:inline;fill:none;fill-opacity:1;stroke:#ffffff;stroke-width:1;stroke-dasharray:none;stroke-opacity:1"
         d="m 130.79575,16.05001 c 0,0 9.12279,6.767098 21.50406,15.625373 12.38127,8.858275 16.83039,10.117317 16.83039,10.117317"
         id="path32"
         sodipodi:nodetypes="czc" /></g></g><g
     inkscape:groupmode="layer"
     id="layer3"
     inkscape:label="Green"
     inkscape:highlight-color="#389826"
     transform="translate(27.644875,-0.62208992)"
     style="display:inline"><path
       style="display:inline;fill:url(#linearGradient22-7);fill-opacity:1;stroke:#fefefe;stroke-width:2;stroke-dasharray:none;stroke-opacity:1"
       d="m 203.113,138.43194 c -5.68348,-18.69488 -4.9215,-51.540788 -5.68348,-69.909157 -1.91255,-46.104052 -15.09544,-82.65686 -55.81955,-59.9998925 28.40013,-4.8831321 10.70477,52.9815445 2.89384,66.2791995 -7.81093,13.297655 -14.77137,22.707178 -21.38493,31.26561 -7.90044,10.22376 -19.60083,20.14219 -33.607934,22.04111"
       id="path6-9"
       sodipodi:nodetypes="csczsc"
       inkscape:label="surface_green" /></g><path
     style="display:none;fill:none;fill-opacity:1;stroke:#ffffff;stroke-width:4;stroke-dasharray:none;stroke-opacity:1;marker-end:url(#Triangle_Fnone_S-ffffff)"
     d="m 172.28511,5.154458 c 52.23806,-12.4131714 27.075,87.467801 18.69215,114.063092"
     id="path87"
     sodipodi:nodetypes="cc"
     inkscape:label="arrow" /></svg>
